<svg xmlns:ev="http://www.w3.org/2001/xml-events" viewBox="0 0 677 218" height="218" xmlns:xlink="http://www.w3.org/1999/xlink" width="677" xmlns="http://www.w3.org/2000/svg"><defs/><g transform="translate(5.5,5.5)" id="page1"><rect x="0" y="0" height="208" width="667" fill="#ffffff"/><g transform="translate(40.000000,40.000000)" id="shape1"><path d="M.0,64.5C.0,28.9,28.9,.0,64.5,.0C100.1,.0,129.0,28.9,129.0,64.5C129.0,100.1,100.1,129.0,64.5,129.0C28.9,129.0,.0,100.1,.0,64.5z" fill-rule="nonzero" stroke="#101843" stroke-width="2.666666746139526" fill="#ffffff"/><text xml:space="preserve" style="fill:#191919;font-family:Microsoft YaHei;font-size:10.00pt"><tspan x="25.6" y="70.5">self.students</tspan></text></g><g transform="translate(269.500000,40.000000)" id="shape2"><path d="M.0,64.5C.0,28.9,28.9,.0,64.5,.0C100.1,.0,129.0,28.9,129.0,64.5C129.0,100.1,100.1,129.0,64.5,129.0C28.9,129.0,.0,100.1,.0,64.5z" fill-rule="nonzero" stroke="#101843" stroke-width="2.666666746139526" fill="#ffffff"/><text xml:space="preserve" style="fill:#191919;font-family:Microsoft YaHei;font-size:10.00pt"><tspan x="16.0" y="70.5">Array controller</tspan></text></g><g transform="translate(499.000000,40.000000)" id="shape3"><path d="M.0,64.5C.0,28.9,28.9,.0,64.5,.0C100.1,.0,129.0,28.9,129.0,64.5C129.0,100.1,100.1,129.0,64.5,129.0C28.9,129.0,.0,100.1,.0,64.5z" fill-rule="nonzero" stroke="#101843" stroke-width="2.666666746139526" fill="#ffffff"/><text xml:space="preserve" style="fill:#191919;font-family:Microsoft YaHei;font-size:10.00pt"><tspan x="31.8" y="70.5">Table view</tspan></text></g><g transform="translate(269.500000,104.500000)" id="shape4"><path d="M.0,.0L-90.7,.0" stroke="#191919" stroke-width="2.666666746139526" fill="none"/><path stroke-linecap="round" d="M-90.7,4.9L-100.5,.0L-90.7,-4.9L-90.7,4.9" stroke="#191919" stroke-width="1" fill="#191919"/><rect x="-73.7" y="-9.0" height="18.0" width="45.0" fill="#ffffff"/><text xml:space="preserve" style="fill:#191919;font-family:Microsoft YaHei;font-size:10.00pt"><tspan x="-73.7" y="6.0">bind to</tspan></text></g><g transform="translate(499.000000,104.500000)" id="shape5"><path d="M.0,.0L-90.7,.0" stroke="#191919" stroke-width="2.666666746139526" fill="none"/><path stroke-linecap="round" d="M-90.7,4.9L-100.5,.0L-90.7,-4.9L-90.7,4.9" stroke="#191919" stroke-width="1" fill="#191919"/><rect x="-73.2" y="-9.0" height="18.0" width="45.0" fill="#ffffff"/><text xml:space="preserve" style="fill:#191919;font-family:Microsoft YaHei;font-size:10.00pt"><tspan x="-73.2" y="6.0">bind to</tspan></text></g></g></svg>