<svg width="1537" xmlns:ev="http://www.w3.org/2001/xml-events" viewBox="0 0 1537 788" height="788" xmlns="http://www.w3.org/2000/svg" xmlns:xlink="http://www.w3.org/1999/xlink"><defs/><g id="page1" transform="translate(5.5,5.5)"><rect width="1527" fill="#ffffff" height="778" x="0" y="0"/><g id="shape1" transform="translate(39.539800,462.350000)"><path d="M34.5,.0L76.9,.0C96.0,.0,111.4,15.4,111.4,34.5C111.4,53.6,96.0,69.0,76.9,69.0L34.5,69.0C15.4,69.0,.0,53.6,.0,34.5C.0,15.4,15.4,.0,34.5,.0z" fill-rule="nonzero" stroke="#5a97fb" fill="#5a97fb" stroke-width="3"/><text style="fill:#ffffff;font-family:Microsoft YaHei;font-size:18.00pt;font-weight:bold" xml:space="preserve"><tspan x="33.5" y="44.5">绑定</tspan></text></g><path d="M-12.5,47.2C5.0,47.2,-12.4,-47.2,12.5,-47.2" stroke-linecap="round" stroke="#454545" fill="none" id="shape2" transform="translate(326.48,285.22)" stroke-width="1"/><path d="M-12.5,-47.2C5.0,-47.2,-12.4,47.2,12.5,47.2" stroke-linecap="round" stroke="#454545" fill="none" id="shape3" transform="translate(326.48,379.55)" stroke-width="1"/><path d="M-12.5,33.1L-0.3,33.1C1.4,33.1,2.7,31.7,2.7,30.1L2.7,-24.1C2.7,-25.7,2.5,-28.2,3.4,-30.0C4.5,-31.8,6.4,-33.1,8.7,-33.1L12.5,-33.1" stroke-linecap="round" stroke="#454545" fill="none" id="shape4" transform="translate(426.48,204.99)" stroke-width="1"/><path d="M-12.5,-33.1L-0.3,-33.1C1.4,-33.1,2.7,-31.7,2.7,-30.1L2.7,24.1C2.7,25.7,2.5,28.2,3.4,30.0C4.5,31.8,6.4,33.1,8.7,33.1L12.5,33.1" stroke-linecap="round" stroke="#454545" fill="none" id="shape5" transform="translate(426.48,271.14)" stroke-width="1"/><path d="M-12.5,.0L-0.3,.0C1.4,.0,3.7,.0,5.7,.0C6.6,.0,7.6,.0,8.7,.0L12.5,.0" stroke-linecap="round" stroke="#454545" fill="none" id="shape6" transform="translate(526.48,171.91)" stroke-width="1"/><path d="M-12.5,.0L-0.3,.0C1.4,.0,3.7,.0,5.7,.0C6.6,.0,7.6,.0,8.7,.0L12.5,.0" stroke-linecap="round" stroke="#454545" fill="none" id="shape7" transform="translate(552.48,304.21)" stroke-width="1"/><path d="M-12.5,.0L-0.3,.0C1.4,.0,3.7,.0,5.7,.0C6.6,.0,7.6,.0,8.7,.0L12.5,.0" stroke-linecap="round" stroke="#454545" fill="none" id="shape8" transform="translate(683.84,171.91)" stroke-width="1"/><path d="M-12.5,31.9L-0.3,31.9C1.4,31.9,2.7,30.5,2.7,28.9L2.7,-22.8C2.7,-24.5,2.5,-27.0,3.4,-28.7C4.5,-30.6,6.4,-31.8,8.7,-31.8L12.5,-31.8" stroke-linecap="round" stroke="#454545" fill="none" id="shape9" transform="translate(806.67,140.06)" stroke-width="1"/><path d="M-12.5,-31.9L-0.3,-31.9C1.4,-31.9,2.7,-30.5,2.7,-28.9L2.7,22.9C2.7,24.5,2.5,27.0,3.4,28.7C4.5,30.6,6.4,31.9,8.7,31.9L12.5,31.9" stroke-linecap="round" stroke="#454545" fill="none" id="shape10" transform="translate(806.67,203.76)" stroke-width="1"/><path d="M-12.5,14.7L-0.3,14.7C1.4,14.7,2.7,13.4,2.7,11.7L2.7,-5.7C2.7,-7.4,2.5,-9.8,3.4,-11.6C4.5,-13.4,6.4,-14.7,8.7,-14.7L12.5,-14.7" stroke-linecap="round" stroke="#454545" fill="none" id="shape11" transform="translate(951.53,220.91)" stroke-width="1"/><path d="M-12.5,9.8L-0.3,9.8C1.4,9.8,2.7,8.5,2.7,6.8L2.7,-0.8C2.7,-2.5,2.5,-4.9,3.4,-6.7C4.5,-8.5,6.4,-9.8,8.7,-9.8L12.5,-9.8" stroke-linecap="round" stroke="#454545" fill="none" id="shape12" transform="translate(1051.53,196.41)" stroke-width="1"/><path d="M-12.5,.0C-2.5,.0,5.0,.0,12.5,.0" stroke-linecap="round" stroke="#454545" fill="none" id="shape13" transform="translate(1241.89,225.81)" stroke-width="1"/><path d="M-12.5,19.6L-0.3,19.6C1.4,19.6,2.7,18.3,2.7,16.6L2.7,-10.6C2.7,-12.3,2.5,-14.7,3.4,-16.5C4.5,-18.3,6.4,-19.6,8.7,-19.6L12.5,-19.6" stroke-linecap="round" stroke="#454545" fill="none" id="shape14" transform="translate(939.85,88.61)" stroke-width="1"/><path d="M-12.5,.0L-0.3,.0C1.4,.0,3.7,.0,5.7,.0C6.6,.0,7.6,.0,8.7,.0L12.5,.0" stroke-linecap="round" stroke="#454545" fill="none" id="shape15" transform="translate(1103.18,69.01)" stroke-width="1"/><path d="M-12.5,27.0L-0.3,27.0C1.4,27.0,2.7,25.6,2.7,24.0L2.7,-18.0C2.7,-19.6,2.5,-22.1,3.4,-23.8C4.5,-25.7,6.4,-27.0,8.7,-27.0L12.5,-27.0" stroke-linecap="round" stroke="#454545" fill="none" id="shape16" transform="translate(426.48,399.76)" stroke-width="1"/><path d="M-12.5,.0C-2.5,.0,5.0,.0,12.5,.0" stroke-linecap="round" stroke="#454545" fill="none" id="shape17" transform="translate(526.48,372.81)" stroke-width="1"/><path d="M-12.5,14.7C.8,14.7,-2.8,-14.7,12.5,-14.7" stroke-linecap="round" stroke="#454545" fill="none" id="shape18" transform="translate(705.20,358.11)" stroke-width="1"/><path d="M-12.5,-14.7C.8,-14.7,-2.8,14.7,12.5,14.7" stroke-linecap="round" stroke="#454545" fill="none" id="shape19" transform="translate(705.20,387.51)" stroke-width="1"/><path d="M-12.5,9.8C-0.2,9.8,-0.3,-9.8,12.5,-9.8" stroke-linecap="round" stroke="#454545" fill="none" id="shape20" transform="translate(931.85,392.41)" stroke-width="1"/><path d="M-12.5,-9.8C-0.2,-9.8,-0.3,9.8,12.5,9.8" stroke-linecap="round" stroke="#454545" fill="none" id="shape21" transform="translate(931.85,412.01)" stroke-width="1"/><path d="M-12.5,-27.0L-0.3,-27.0C1.4,-27.0,2.7,-25.6,2.7,-24.0L2.7,18.0C2.7,19.6,2.5,22.1,3.4,23.8C4.5,25.7,6.4,27.0,8.7,27.0L12.5,27.0" stroke-linecap="round" stroke="#454545" fill="none" id="shape22" transform="translate(426.48,453.66)" stroke-width="1"/><path d="M-12.5,.0C-2.5,.0,5.0,.0,12.5,.0" stroke-linecap="round" stroke="#454545" fill="none" id="shape23" transform="translate(526.48,480.61)" stroke-width="1"/><path d="M-12.5,9.8C-0.2,9.8,-0.3,-9.8,12.5,-9.8" stroke-linecap="round" stroke="#454545" fill="none" id="shape24" transform="translate(600.48,470.81)" stroke-width="1"/><path d="M-12.5,-9.8C-0.2,-9.8,-0.3,9.8,12.5,9.8" stroke-linecap="round" stroke="#454545" fill="none" id="shape25" transform="translate(600.48,490.41)" stroke-width="1"/><path d="M-12.5,24.3C2.7,24.3,-7.1,-24.3,12.5,-24.3" stroke-linecap="round" stroke="#454545" fill="none" id="shape26" transform="translate(345.48,637.01)" stroke-width="1"/><path d="M-12.5,14.7C.8,14.7,-2.8,-14.7,12.5,-14.7" stroke-linecap="round" stroke="#454545" fill="none" id="shape27" transform="translate(445.48,598.01)" stroke-width="1"/><path d="M-12.5,.0C-2.5,.0,5.0,.0,12.5,.0" stroke-linecap="round" stroke="#454545" fill="none" id="shape28" transform="translate(636.48,583.31)" stroke-width="1"/><path d="M-12.5,-14.7C.8,-14.7,-2.8,14.7,12.5,14.7" stroke-linecap="round" stroke="#454545" fill="none" id="shape29" transform="translate(445.48,627.41)" stroke-width="1"/><path d="M-12.5,.0L-0.3,.0C1.4,.0,3.7,.0,5.7,.0C6.6,.0,7.6,.0,8.7,.0L12.5,.0" stroke-linecap="round" stroke="#454545" fill="none" id="shape30" transform="translate(939.85,108.21)" stroke-width="1"/><path d="M-12.5,-14.7L-0.3,-14.7C1.4,-14.7,2.7,-13.4,2.7,-11.7L2.7,5.7C2.7,7.4,2.5,9.8,3.4,11.6C4.5,13.4,6.4,14.7,8.7,14.7L12.5,14.7" stroke-linecap="round" stroke="#454545" fill="none" id="shape31" transform="translate(951.53,250.31)" stroke-width="1"/><path d="M-12.5,9.8C-0.2,9.8,-0.3,-9.8,12.5,-9.8" stroke-linecap="round" stroke="#454545" fill="none" id="shape32" transform="translate(825.32,573.51)" stroke-width="1"/><path d="M-12.5,-9.8C-0.2,-9.8,-0.3,9.8,12.5,9.8" stroke-linecap="round" stroke="#454545" fill="none" id="shape33" transform="translate(825.32,593.11)" stroke-width="1"/><path d="M-3.6,82.2L20.0,82.2C21.6,82.2,23.0,80.9,23.0,79.2L23.0,-73.2C23.0,-74.9,22.7,-77.3,23.7,-79.1C24.7,-81.0,26.7,-82.2,29.0,-82.2L59.4,-82.2" stroke-linecap="round" stroke="#454545" fill="none" id="shape34" transform="translate(154.62,414.62)" stroke-width="3"/><path d="M-3.6,-82.2L20.0,-82.2C21.6,-82.2,23.0,-80.9,23.0,-79.2L23.0,73.2C23.0,74.9,22.7,77.3,23.7,79.1C24.7,81.0,26.7,82.2,29.0,82.2L59.4,82.2" stroke-linecap="round" stroke="#454545" fill="none" id="shape35" transform="translate(154.62,579.08)" stroke-width="3"/><path d="M-12.5,.0C-2.5,.0,5.0,.0,12.5,.0" stroke-linecap="round" stroke="#454545" fill="none" id="shape36" transform="translate(929.82,642.11)" stroke-width="1"/><path d="M-12.5,-24.3C2.7,-24.3,-7.1,24.3,12.5,24.3" stroke-linecap="round" stroke="#454545" fill="none" id="shape37" transform="translate(345.48,685.61)" stroke-width="1"/><path d="M-12.5,14.3C.8,14.3,-2.6,-14.3,12.5,-14.3" stroke-linecap="round" stroke="#454545" fill="none" id="shape38" transform="translate(503.53,695.61)" stroke-width="1"/><path d="M-12.5,-14.3C.8,-14.3,-2.6,14.3,12.5,14.3" stroke-linecap="round" stroke="#454545" fill="none" id="shape39" transform="translate(503.53,724.21)" stroke-width="1"/><path d="M-12.5,-19.6L-0.3,-19.6C1.4,-19.6,2.7,-18.3,2.7,-16.6L2.7,10.6C2.7,12.3,2.5,14.7,3.4,16.5C4.5,18.3,6.4,19.6,8.7,19.6L12.5,19.6" stroke-linecap="round" stroke="#454545" fill="none" id="shape40" transform="translate(939.85,127.81)" stroke-width="1"/><path d="M-12.5,-9.8L-0.3,-9.8C1.4,-9.8,2.7,-8.5,2.7,-6.8L2.7,.8C2.7,2.5,2.5,4.9,3.4,6.7C4.5,8.5,6.4,9.8,8.7,9.8L12.5,9.8" stroke-linecap="round" stroke="#454545" fill="none" id="shape41" transform="translate(1051.53,216.01)" stroke-width="1"/><g id="shape42" transform="translate(338.979800,207.562500)"><path d="M.0,.0L75.0,.0L75.0,30.5L.0,30.5L.0,.0z" fill-rule="nonzero" fill="#ffffff"/><path d="M.0,30.5L75.0,30.5" stroke="#454545" fill="none" stroke-width="1"/><text style="fill:#303030;font-family:Microsoft YaHei;font-size:10.00pt" xml:space="preserve"><tspan x="12.5" y="21.3">静态绑定</tspan></text></g><g id="shape43" transform="translate(338.979800,396.212500)"><path d="M.0,.0L75.0,.0L75.0,30.5L.0,30.5L.0,.0z" fill-rule="nonzero" fill="#ffffff"/><path d="M.0,30.5L75.0,30.5" stroke="#454545" fill="none" stroke-width="1"/><text style="fill:#303030;font-family:Microsoft YaHei;font-size:10.00pt" xml:space="preserve"><tspan x="12.5" y="21.3">动态绑定</tspan></text></g><g id="shape44" transform="translate(438.979800,141.412500)"><path d="M.0,.0L75.0,.0L75.0,30.5L.0,30.5L.0,.0z" fill-rule="nonzero" fill="#ffffff"/><path d="M.0,30.5L75.0,30.5" stroke="#454545" fill="none" stroke-width="1"/><text style="fill:#303030;font-family:Microsoft YaHei;font-size:10.00pt" xml:space="preserve"><tspan x="12.5" y="21.3">绑定操作</tspan></text></g><g id="shape45" transform="translate(438.979800,273.712500)"><path d="M.0,.0L101.0,.0L101.0,30.5L.0,30.5L.0,.0z" fill-rule="nonzero" fill="#ffffff"/><path d="M.0,30.5L101.0,30.5" stroke="#454545" fill="none" stroke-width="1"/><text style="fill:#303030;font-family:Microsoft YaHei;font-size:10.00pt" xml:space="preserve"><tspan x="12.5" y="21.3">查看绑定关系</tspan></text></g><g id="shape46" transform="translate(538.979800,141.412500)"><path d="M.0,.0L132.4,.0L132.4,30.5L.0,30.5L.0,.0z" fill-rule="nonzero" fill="#ffffff"/><path d="M.0,30.5L132.4,30.5" stroke="#454545" fill="none" stroke-width="1"/><text style="fill:#303030;font-family:Microsoft YaHei;font-size:10.00pt" xml:space="preserve"><tspan x="12.5" y="21.3">binding inspector</tspan></text></g><g id="shape47" transform="translate(564.979800,273.712500)"><path d="M.0,.0L153.7,.0L153.7,30.5L.0,30.5L.0,.0z" fill-rule="nonzero" fill="#ffffff"/><path d="M.0,30.5L153.7,30.5" stroke="#454545" fill="none" stroke-width="1"/><text style="fill:#303030;font-family:Microsoft YaHei;font-size:10.00pt" xml:space="preserve"><tspan x="12.5" y="21.3">connection inspector</tspan></text></g><g id="shape48" transform="translate(696.339175,141.412500)"><path d="M.0,.0L97.8,.0L97.8,30.5L.0,30.5L.0,.0z" fill-rule="nonzero" fill="#ffffff"/><path d="M.0,30.5L97.8,30.5" stroke="#454545" fill="none" stroke-width="1"/><text style="fill:#303030;font-family:Microsoft YaHei;font-size:10.00pt" xml:space="preserve"><tspan x="12.5" y="21.3">bind to 设置</tspan></text></g><g id="shape49" transform="translate(819.167300,77.712500)"><path d="M.0,.0L108.2,.0L108.2,30.5L.0,30.5L.0,.0z" fill-rule="nonzero" fill="#ffffff"/><path d="M.0,30.5L108.2,30.5" stroke="#454545" fill="none" stroke-width="1"/><text style="fill:#303030;font-family:Microsoft YaHei;font-size:10.00pt" xml:space="preserve"><tspan x="12.5" y="21.3">controller key</tspan></text></g><g id="shape50" transform="translate(819.167300,205.112500)"><path d="M.0,.0L119.9,.0L119.9,30.5L.0,30.5L.0,.0z" fill-rule="nonzero" fill="#ffffff"/><path d="M.0,30.5L119.9,30.5" stroke="#454545" fill="none" stroke-width="1"/><text style="fill:#303030;font-family:Microsoft YaHei;font-size:10.00pt" xml:space="preserve"><tspan x="12.5" y="21.3">model key path</tspan></text></g><g id="shape51" transform="translate(964.026675,175.712500)"><path d="M.0,.0L75.0,.0L75.0,30.5L.0,30.5L.0,.0z" fill-rule="nonzero" fill="#ffffff"/><path d="M.0,30.5L75.0,30.5" stroke="#454545" fill="none" stroke-width="1"/><text style="fill:#303030;font-family:Microsoft YaHei;font-size:10.00pt" xml:space="preserve"><tspan x="12.5" y="21.3">绑定对象</tspan></text></g><g id="shape52" transform="translate(1064.026675,156.112500)"><path d="M.0,.0L73.8,.0L73.8,30.5L.0,30.5L.0,.0z" fill-rule="nonzero" fill="#ffffff"/><path d="M.0,30.5L73.8,30.5" stroke="#454545" fill="none" stroke-width="1"/><text style="fill:#303030;font-family:Microsoft YaHei;font-size:10.00pt" xml:space="preserve"><tspan x="12.5" y="21.3">self.xxxx</tspan></text></g><g id="shape53" transform="translate(1254.386050,195.312500)"><path d="M.0,.0L233.8,.0L233.8,30.5L.0,30.5L.0,.0z" fill-rule="nonzero" fill="#ffffff"/><path d="M.0,30.5L233.8,30.5" stroke="#454545" fill="none" stroke-width="1"/><text style="fill:#303030;font-family:Microsoft YaHei;font-size:10.00pt" xml:space="preserve"><tspan x="12.5" y="21.3">对象下的某个字段 objectValue.xxxx</tspan></text></g><g id="shape54" transform="translate(952.354800,38.512500)"><path d="M.0,.0L138.3,.0L138.3,30.5L.0,30.5L.0,.0z" fill-rule="nonzero" fill="#ffffff"/><path d="M.0,30.5L138.3,30.5" stroke="#454545" fill="none" stroke-width="1"/><text style="fill:#303030;font-family:Microsoft YaHei;font-size:10.00pt" xml:space="preserve"><tspan x="12.5" y="21.3">cocoa 定义好的 var</tspan></text></g><g id="shape55" transform="translate(1115.682925,38.512500)"><path d="M.0,.0L156.2,.0L156.2,30.5L.0,30.5L.0,.0z" fill-rule="nonzero" fill="#ffffff"/><path d="M.0,30.5L156.2,30.5" stroke="#454545" fill="none" stroke-width="1"/><text style="fill:#303030;font-family:Microsoft YaHei;font-size:10.00pt" xml:space="preserve"><tspan x="12.5" y="21.3">数组 arrangedObjects</tspan></text></g><g id="shape56" transform="translate(438.979800,342.312500)"><path d="M.0,.0L75.0,.0L75.0,30.5L.0,30.5L.0,.0z" fill-rule="nonzero" fill="#ffffff"/><path d="M.0,30.5L75.0,30.5" stroke="#454545" fill="none" stroke-width="1"/><text style="fill:#303030;font-family:Microsoft YaHei;font-size:10.00pt" xml:space="preserve"><tspan x="12.5" y="21.3">绑定操作</tspan></text></g><g id="shape57" transform="translate(538.979800,342.312500)"><path d="M.0,.0L153.7,.0L153.7,30.5L.0,30.5L.0,.0z" fill-rule="nonzero" fill="#ffffff"/><path d="M.0,30.5L153.7,30.5" stroke="#454545" fill="none" stroke-width="1"/><text style="fill:#303030;font-family:Microsoft YaHei;font-size:10.00pt" xml:space="preserve"><tspan x="12.5" y="21.3">connection inspector</tspan></text></g><g id="shape58" transform="translate(717.698550,312.912500)"><path d="M.0,.0L456.5,.0L456.5,30.5L.0,30.5L.0,.0z" fill-rule="nonzero" fill="#ffffff"/><path d="M.0,30.5L456.5,30.5" stroke="#454545" fill="none" stroke-width="1"/><text style="fill:#303030;font-family:Microsoft YaHei;font-size:10.00pt" xml:space="preserve"><tspan x="12.5" y="21.3">control 拖动到 view controller 类，绑定到某个字段，从而获得控件的对象</tspan></text></g><g id="shape59" transform="translate(717.698550,371.712500)"><path d="M.0,.0L201.7,.0L201.7,30.5L.0,30.5L.0,.0z" fill-rule="nonzero" fill="#ffffff"/><path d="M.0,30.5L201.7,30.5" stroke="#454545" fill="none" stroke-width="1"/><text style="fill:#303030;font-family:Microsoft YaHei;font-size:10.00pt" xml:space="preserve"><tspan x="12.5" y="21.3">设置 dataSource 和 delegate </tspan></text></g><g id="shape60" transform="translate(944.354800,352.112500)"><path d="M.0,.0L280.5,.0L280.5,30.5L.0,30.5L.0,.0z" fill-rule="nonzero" fill="#ffffff"/><path d="M.0,30.5L280.5,30.5" stroke="#454545" fill="none" stroke-width="1"/><text style="fill:#303030;font-family:Microsoft YaHei;font-size:10.00pt" xml:space="preserve"><tspan x="12.5" y="21.3">代码继承 dataSource 和 delegate protocol</tspan></text></g><g id="shape61" transform="translate(944.354800,391.312500)"><path d="M.0,.0L430.3,.0L430.3,30.5L.0,30.5L.0,.0z" fill-rule="nonzero" fill="#ffffff"/><path d="M.0,30.5L430.3,30.5" stroke="#454545" fill="none" stroke-width="1"/><text style="fill:#303030;font-family:Microsoft YaHei;font-size:10.00pt" xml:space="preserve"><tspan x="12.5" y="21.3">connection inspector 中选择对应的 + 号拖到 view controller 控件上</tspan></text></g><g id="shape62" transform="translate(438.979800,450.112500)"><path d="M.0,.0L75.0,.0L75.0,30.5L.0,30.5L.0,.0z" fill-rule="nonzero" fill="#ffffff"/><path d="M.0,30.5L75.0,30.5" stroke="#454545" fill="none" stroke-width="1"/><text style="fill:#303030;font-family:Microsoft YaHei;font-size:10.00pt" xml:space="preserve"><tspan x="12.5" y="21.3">代码改动</tspan></text></g><g id="shape63" transform="translate(538.979800,450.112500)"><path d="M.0,.0L49.0,.0L49.0,30.5L.0,30.5L.0,.0z" fill-rule="nonzero" fill="#ffffff"/><path d="M.0,30.5L49.0,30.5" stroke="#454545" fill="none" stroke-width="1"/><text style="fill:#303030;font-family:Microsoft YaHei;font-size:10.00pt" xml:space="preserve"><tspan x="12.5" y="21.3">代码</tspan></text></g><g id="shape64" transform="translate(612.979800,430.512500)"><path d="M.0,.0L101.0,.0L101.0,30.5L.0,30.5L.0,.0z" fill-rule="nonzero" fill="#ffffff"/><path d="M.0,30.5L101.0,30.5" stroke="#454545" fill="none" stroke-width="1"/><text style="fill:#303030;font-family:Microsoft YaHei;font-size:10.00pt" xml:space="preserve"><tspan x="12.5" y="21.3">控件对象操作</tspan></text></g><g id="shape65" transform="translate(612.979800,469.712500)"><path d="M.0,.0L257.0,.0L257.0,30.5L.0,30.5L.0,.0z" fill-rule="nonzero" fill="#ffffff"/><path d="M.0,30.5L257.0,30.5" stroke="#454545" fill="none" stroke-width="1"/><text style="fill:#303030;font-family:Microsoft YaHei;font-size:10.00pt" xml:space="preserve"><tspan x="12.5" y="21.3">使用代码实现和静态绑定那样的绑定关系</tspan></text></g><g id="shape66" transform="translate(357.979800,582.212500)"><path d="M.0,.0L75.0,.0L75.0,30.5L.0,30.5L.0,.0z" fill-rule="nonzero" fill="#ffffff"/><path d="M.0,30.5L75.0,30.5" stroke="#454545" fill="none" stroke-width="1"/><text style="fill:#303030;font-family:Microsoft YaHei;font-size:10.00pt" xml:space="preserve"><tspan x="12.5" y="21.3">消息机制</tspan></text></g><g id="shape67" transform="translate(457.979800,552.812500)"><path d="M.0,.0L166.0,.0L166.0,30.5L.0,30.5L.0,.0z" fill-rule="nonzero" fill="#ffffff"/><path d="M.0,30.5L166.0,30.5" stroke="#454545" fill="none" stroke-width="1"/><text style="fill:#303030;font-family:Microsoft YaHei;font-size:10.00pt" xml:space="preserve"><tspan x="12.5" y="21.3">本质上其实就是函数调用</tspan></text></g><g id="shape68" transform="translate(648.979800,552.812500)"><path d="M.0,.0L163.8,.0L163.8,30.5L.0,30.5L.0,.0z" fill-rule="nonzero" fill="#ffffff"/><path d="M.0,30.5L163.8,30.5" stroke="#454545" fill="none" stroke-width="1"/><text style="fill:#303030;font-family:Microsoft YaHei;font-size:10.00pt" xml:space="preserve"><tspan x="12.5" y="21.3">receiver.action(sender)</tspan></text></g><g id="shape69" transform="translate(457.979800,611.612500)"><path d="M.0,.0L459.3,.0L459.3,30.5L.0,30.5L.0,.0z" fill-rule="nonzero" fill="#ffffff"/><path d="M.0,30.5L459.3,30.5" stroke="#454545" fill="none" stroke-width="1"/><text style="fill:#303030;font-family:Microsoft YaHei;font-size:10.00pt" xml:space="preserve"><tspan x="12.5" y="21.3">在 connection inspector 上的 Action 栏可以查看到控件都支持什么 action</tspan></text></g><g id="shape70" transform="translate(952.354800,77.712500)"><path d="M.0,.0L258.5,.0L258.5,30.5L.0,30.5L.0,.0z" fill-rule="nonzero" fill="#ffffff"/><path d="M.0,30.5L258.5,30.5" stroke="#454545" fill="none" stroke-width="1"/><text style="fill:#303030;font-family:Microsoft YaHei;font-size:10.00pt" xml:space="preserve"><tspan x="12.5" y="21.3">cocoa 控件对应的类已经定义好的字段值</tspan></text></g><g id="shape71" transform="translate(964.026675,234.512500)"><path d="M.0,.0L140.0,.0L140.0,30.5L.0,30.5L.0,.0z" fill-rule="nonzero" fill="#ffffff"/><path d="M.0,30.5L140.0,30.5" stroke="#454545" fill="none" stroke-width="1"/><text style="fill:#303030;font-family:Microsoft YaHei;font-size:10.00pt" xml:space="preserve"><tspan x="12.5" y="21.3">用户自定义的字段值</tspan></text></g><g id="shape72" transform="translate(837.823550,533.212500)"><path d="M.0,.0L293.5,.0L293.5,30.5L.0,30.5L.0,.0z" fill-rule="nonzero" fill="#ffffff"/><path d="M.0,30.5L293.5,30.5" stroke="#454545" fill="none" stroke-width="1"/><text style="fill:#303030;font-family:Microsoft YaHei;font-size:10.00pt" xml:space="preserve"><tspan x="12.5" y="21.3">通过 storyboard 的 control 拖拉操作发送消息</tspan></text></g><g id="shape73" transform="translate(837.823550,572.412500)"><path d="M.0,.0L464.9,.0L464.9,30.5L.0,30.5L.0,.0z" fill-rule="nonzero" fill="#ffffff"/><path d="M.0,30.5L464.9,30.5" stroke="#454545" fill="none" stroke-width="1"/><text style="fill:#303030;font-family:Microsoft YaHei;font-size:10.00pt" xml:space="preserve"><tspan x="12.5" y="21.3">通过 control 拖拉操作在代码中获得控件对象，在代码中直接调用对应的函数</tspan></text></g><g id="shape74" transform="translate(213.979800,308.387500)"><path d="M4.0,.0L96.0,.0C98.2,.0,100.0,1.8,100.0,4.0L100.0,44.0C100.0,46.2,98.2,48.0,96.0,48.0L4.0,48.0C1.8,48.0,.0,46.2,.0,44.0L.0,4.0C.0,1.8,1.8,.0,4.0,.0z" fill-rule="nonzero" stroke="#454545" fill="#ffffff" stroke-width="2"/><text style="fill:#303030;font-family:Microsoft YaHei;font-size:14.00pt;font-weight:bold" xml:space="preserve"><tspan x="23.3" y="33.0">绑定值</tspan></text></g><g id="shape75" transform="translate(213.979800,637.312500)"><path d="M4.0,.0L115.0,.0C117.2,.0,119.0,1.8,119.0,4.0L119.0,44.0C119.0,46.2,117.2,48.0,115.0,48.0L4.0,48.0C1.8,48.0,.0,46.2,.0,44.0L.0,4.0C.0,1.8,1.8,.0,4.0,.0z" fill-rule="nonzero" stroke="#454545" fill="#ffffff" stroke-width="2"/><text style="fill:#303030;font-family:Microsoft YaHei;font-size:14.00pt;font-weight:bold" xml:space="preserve"><tspan x="23.3" y="33.0">绑定动作</tspan></text></g><g id="shape76" transform="translate(942.323550,611.612500)"><path d="M.0,.0L344.0,.0L344.0,30.5L.0,30.5L.0,.0z" fill-rule="nonzero" fill="#ffffff"/><path d="M.0,30.5L344.0,30.5" stroke="#454545" fill="none" stroke-width="1"/><text style="fill:#303030;font-family:Microsoft YaHei;font-size:10.00pt" xml:space="preserve"><tspan x="12.5" y="21.3">拖动 action 函数后的 + 号可以绑定到某个 sender 控件</tspan></text></g><g id="shape77" transform="translate(357.979800,679.412500)"><path d="M.0,.0L133.0,.0L133.0,30.5L.0,30.5L.0,.0z" fill-rule="nonzero" fill="#ffffff"/><path d="M.0,30.5L133.0,30.5" stroke="#454545" fill="none" stroke-width="1"/><text style="fill:#303030;font-family:Microsoft YaHei;font-size:10.00pt" xml:space="preserve"><tspan x="12.5" y="21.3">回调机制 delegate</tspan></text></g><g id="shape78" transform="translate(516.026675,650.812500)"><path d="M.0,.0L234.1,.0L234.1,30.5L.0,30.5L.0,.0z" fill-rule="nonzero" fill="#ffffff"/><path d="M.0,30.5L234.1,30.5" stroke="#454545" fill="none" stroke-width="1"/><text style="fill:#303030;font-family:Microsoft YaHei;font-size:10.00pt" xml:space="preserve"><tspan x="12.5" y="21.3">protocol 的根是 NSObjectProtocol</tspan></text></g><g id="shape79" transform="translate(516.026675,690.012500)"><path d="M.0,.0L515.0,.0L515.0,48.5L.0,48.5L.0,.0z" fill-rule="nonzero" fill="#ffffff"/><path d="M.0,48.5L515.0,48.5" stroke="#454545" fill="none" stroke-width="1"/><text style="fill:#303030;font-family:Microsoft YaHei;font-size:10.00pt" xml:space="preserve"><tspan x="14.3" y="21.3">控件 NSXXXX，对应的 delegate 是 NSXXXXDelegate，注意有些动作回调放在根深</tspan><tspan x="195.8" y="39.3">一层的父 protocol 上</tspan></text></g><g id="shape80" transform="translate(952.354800,116.912500)"><path d="M.0,.0L414.9,.0L414.9,30.5L.0,30.5L.0,.0z" fill-rule="nonzero" fill="#ffffff"/><path d="M.0,30.5L414.9,30.5" stroke="#454545" fill="none" stroke-width="1"/><text style="fill:#303030;font-family:Microsoft YaHei;font-size:10.00pt" xml:space="preserve"><tspan x="12.5" y="21.3">可查看文档知道某个控件对应的类的 controller key 的字段表示什么</tspan></text></g><g id="shape81" transform="translate(1064.026675,195.312500)"><path d="M.0,.0L165.4,.0L165.4,30.5L.0,30.5L.0,.0z" fill-rule="nonzero" fill="#ffffff"/><path d="M.0,30.5L165.4,30.5" stroke="#454545" fill="none" stroke-width="1"/><text style="fill:#303030;font-family:Microsoft YaHei;font-size:10.00pt" xml:space="preserve"><tspan x="11.5" y="21.3">绑定的对象 objectValue</tspan></text></g></g></svg>