<svg xmlns:ev="http://www.w3.org/2001/xml-events" xmlns="http://www.w3.org/2000/svg" width="1343" viewBox="0 0 1343 456" xmlns:xlink="http://www.w3.org/1999/xlink" height="456"><defs/><g id="page1" transform="translate(5.5,5.5)"><rect fill="#ffffff" x="0" width="1333" y="0" height="446"/><g id="shape1" transform="translate(39.539843,203.350394)"><path fill-rule="nonzero" stroke-width="3" fill="#5a97fb" d="M34.5,.0L76.9,.0C96.0,.0,111.4,15.4,111.4,34.5C111.4,53.6,96.0,69.0,76.9,69.0L34.5,69.0C15.4,69.0,.0,53.6,.0,34.5C.0,15.4,15.4,.0,34.5,.0z" stroke="#5a97fb"/><text xml:space="preserve" style="fill:#ffffff;font-family:Microsoft YaHei;font-size:18.00pt;font-weight:bold"><tspan x="33.5" y="44.5">绑定</tspan></text></g><g id="shape2" transform="translate(154.62,190.13)"><path stroke-width="3" fill="none" d="M-3.6,47.7L20.0,47.7C21.6,47.7,23.0,46.4,23.0,44.7L23.0,-38.7C23.0,-40.4,22.7,-42.8,23.7,-44.6C24.7,-46.5,26.7,-47.7,29.0,-47.7L59.4,-47.7" stroke-linecap="round" stroke="#454545"/></g><g id="shape3" transform="translate(154.62,285.58)"><path stroke-width="3" fill="none" d="M-3.6,-47.7L20.0,-47.7C21.6,-47.7,23.0,-46.4,23.0,-44.7L23.0,38.7C23.0,40.4,22.7,42.8,23.7,44.6C24.7,46.5,26.7,47.7,29.0,47.7L59.4,47.7" stroke-linecap="round" stroke="#454545"/></g><g id="shape4" transform="translate(345.48,120.35)"><path stroke-width="1" fill="none" d="M-12.5,22.1L-0.3,22.1C1.4,22.1,2.7,20.7,2.7,19.1L2.7,-13.1C2.7,-14.7,2.5,-17.2,3.4,-18.9C4.5,-20.8,6.4,-22.1,8.7,-22.1L12.5,-22.1" stroke-linecap="round" stroke="#454545"/></g><g id="shape5" transform="translate(345.48,164.45)"><path stroke-width="1" fill="none" d="M-12.5,-22.1L-0.3,-22.1C1.4,-22.1,2.7,-20.7,2.7,-19.1L2.7,13.0C2.7,14.7,2.5,17.2,3.4,18.9C4.5,20.8,6.4,22.0,8.7,22.0L12.5,22.0" stroke-linecap="round" stroke="#454545"/></g><g id="shape6" transform="translate(445.48,98.30)"><path stroke-width="1" fill="none" d="M-12.5,.0L-0.3,.0C1.4,.0,3.7,.0,5.7,.0C6.6,.0,7.6,.0,8.7,.0L12.5,.0" stroke-linecap="round" stroke="#454545"/></g><g id="shape7" transform="translate(471.48,186.50)"><path stroke-width="1" fill="none" d="M-12.5,.0L-0.3,.0C1.4,.0,3.7,.0,5.7,.0C6.6,.0,7.6,.0,8.7,.0L12.5,.0" stroke-linecap="round" stroke="#454545"/></g><g id="shape8" transform="translate(602.84,98.30)"><path stroke-width="1" fill="none" d="M-12.5,.0L-0.3,.0C1.4,.0,3.7,.0,5.7,.0C6.6,.0,7.6,.0,8.7,.0L12.5,.0" stroke-linecap="round" stroke="#454545"/></g><g id="shape9" transform="translate(725.67,83.60)"><path stroke-width="1" fill="none" d="M-12.5,14.7L-0.3,14.7C1.4,14.7,2.7,13.4,2.7,11.7L2.7,-5.7C2.7,-7.4,2.5,-9.8,3.4,-11.6C4.5,-13.4,6.4,-14.7,8.7,-14.7L12.5,-14.7" stroke-linecap="round" stroke="#454545"/></g><g id="shape10" transform="translate(725.67,113.00)"><path stroke-width="1" fill="none" d="M-12.5,-14.7L-0.3,-14.7C1.4,-14.7,2.7,-13.4,2.7,-11.7L2.7,5.7C2.7,7.4,2.5,9.8,3.4,11.6C4.5,13.4,6.4,14.7,8.7,14.7L12.5,14.7" stroke-linecap="round" stroke="#454545"/></g><g id="shape11" transform="translate(870.53,127.70)"><path stroke-width="1" fill="none" d="M-12.5,.0L-0.3,.0C1.4,.0,3.7,.0,5.7,.0C6.6,.0,7.6,.0,8.7,.0L12.5,.0" stroke-linecap="round" stroke="#454545"/></g><g id="shape12" transform="translate(970.53,117.90)"><path stroke-width="1" fill="none" d="M-12.5,9.8L-0.3,9.8C1.4,9.8,2.7,8.5,2.7,6.8L2.7,-0.8C2.7,-2.5,2.5,-4.9,3.4,-6.7C4.5,-8.5,6.4,-9.8,8.7,-9.8L12.5,-9.8" stroke-linecap="round" stroke="#454545"/></g><g id="shape13" transform="translate(970.53,137.50)"><path stroke-width="1" fill="none" d="M-12.5,-9.8L-0.3,-9.8C1.4,-9.8,2.7,-8.5,2.7,-6.8L2.7,.8C2.7,2.5,2.5,4.9,3.4,6.7C4.5,8.5,6.4,9.8,8.7,9.8L12.5,9.8" stroke-linecap="round" stroke="#454545"/></g><g id="shape14" transform="translate(858.85,68.90)"><path stroke-width="1" fill="none" d="M-12.5,.0L-0.3,.0C1.4,.0,3.7,.0,5.7,.0C6.6,.0,7.6,.0,8.7,.0L12.5,.0" stroke-linecap="round" stroke="#454545"/></g><g id="shape15" transform="translate(958.01,68.90)"><path stroke-width="1" fill="none" d="M-12.5,.0L-0.3,.0C1.4,.0,3.7,.0,5.7,.0C6.6,.0,7.6,.0,8.7,.0L12.5,.0" stroke-linecap="round" stroke="#454545"/></g><path stroke-width="1" fill="none" id="shape16" d="M-12.5,27.0L-0.3,27.0C1.4,27.0,2.7,25.6,2.7,24.0L2.7,-17.9C2.7,-19.6,2.5,-22.1,3.4,-23.8C4.5,-25.7,6.4,-26.9,8.7,-26.9L12.5,-26.9" stroke-linecap="round" transform="translate(345.48,306.35)" stroke="#454545"/><path stroke-width="1" fill="none" id="shape17" d="M-12.5,.0C-2.5,.0,5.0,.0,12.5,.0" stroke-linecap="round" transform="translate(445.48,279.40)" stroke="#454545"/><path stroke-width="1" fill="none" id="shape18" d="M-12.5,14.7C.8,14.7,-2.8,-14.7,12.5,-14.7" stroke-linecap="round" transform="translate(624.20,264.70)" stroke="#454545"/><path stroke-width="1" fill="none" id="shape19" d="M-12.5,-14.7C.8,-14.7,-2.8,14.7,12.5,14.7" stroke-linecap="round" transform="translate(624.20,294.10)" stroke="#454545"/><path stroke-width="1" fill="none" id="shape20" d="M-12.5,9.8C-0.2,9.8,-0.3,-9.8,12.5,-9.8" stroke-linecap="round" transform="translate(850.85,299.00)" stroke="#454545"/><path stroke-width="1" fill="none" id="shape21" d="M-12.5,-9.8C-0.2,-9.8,-0.3,9.8,12.5,9.8" stroke-linecap="round" transform="translate(850.85,318.60)" stroke="#454545"/><path stroke-width="1" fill="none" id="shape22" d="M-12.5,-27.0L-0.3,-27.0C1.4,-27.0,2.7,-25.6,2.7,-24.0L2.7,17.9C2.7,19.6,2.5,22.1,3.4,23.8C4.5,25.7,6.4,26.9,8.7,26.9L12.5,26.9" stroke-linecap="round" transform="translate(345.48,360.25)" stroke="#454545"/><path stroke-width="1" fill="none" id="shape23" d="M-12.5,.0C-2.5,.0,5.0,.0,12.5,.0" stroke-linecap="round" transform="translate(445.48,387.20)" stroke="#454545"/><path stroke-width="1" fill="none" id="shape24" d="M-12.5,9.8C-0.2,9.8,-0.3,-9.8,12.5,-9.8" stroke-linecap="round" transform="translate(519.48,377.40)" stroke="#454545"/><path stroke-width="1" fill="none" id="shape25" d="M-12.5,-9.8C-0.2,-9.8,-0.3,9.8,12.5,9.8" stroke-linecap="round" transform="translate(519.48,397.00)" stroke="#454545"/><g id="shape26" transform="translate(213.979843,118.400394)"><path fill-rule="nonzero" stroke-width="2" fill="#ffffff" d="M4.0,.0L115.0,.0C117.2,.0,119.0,1.8,119.0,4.0L119.0,44.0C119.0,46.2,117.2,48.0,115.0,48.0L4.0,48.0C1.8,48.0,.0,46.2,.0,44.0L.0,4.0C.0,1.8,1.8,.0,4.0,.0z" stroke="#454545"/><text xml:space="preserve" style="fill:#303030;font-family:Microsoft YaHei;font-size:14.00pt;font-weight:bold"><tspan x="23.3" y="33.0">静态绑定</tspan></text></g><g id="shape27" transform="translate(213.979843,309.300394)"><path fill-rule="nonzero" stroke-width="2" fill="#ffffff" d="M4.0,.0L115.0,.0C117.2,.0,119.0,1.8,119.0,4.0L119.0,44.0C119.0,46.2,117.2,48.0,115.0,48.0L4.0,48.0C1.8,48.0,.0,46.2,.0,44.0L.0,4.0C.0,1.8,1.8,.0,4.0,.0z" stroke="#454545"/><text xml:space="preserve" style="fill:#303030;font-family:Microsoft YaHei;font-size:14.00pt;font-weight:bold"><tspan x="23.3" y="33.0">动态绑定</tspan></text></g><g id="shape28" transform="translate(357.979843,67.800394)"><path fill-rule="nonzero" fill="#ffffff" d="M.0,.0L75.0,.0L75.0,30.5L.0,30.5L.0,.0z"/><path stroke-width="1" fill="none" d="M.0,30.5L75.0,30.5" stroke="#454545"/><text xml:space="preserve" style="fill:#303030;font-family:Microsoft YaHei;font-size:10.00pt"><tspan x="12.5" y="21.3">绑定操作</tspan></text></g><g id="shape29" transform="translate(357.979843,156.000394)"><path fill-rule="nonzero" fill="#ffffff" d="M.0,.0L101.0,.0L101.0,30.5L.0,30.5L.0,.0z"/><path stroke-width="1" fill="none" d="M.0,30.5L101.0,30.5" stroke="#454545"/><text xml:space="preserve" style="fill:#303030;font-family:Microsoft YaHei;font-size:10.00pt"><tspan x="12.5" y="21.3">查看绑定关系</tspan></text></g><g id="shape30" transform="translate(457.979843,67.800394)"><path fill-rule="nonzero" fill="#ffffff" d="M.0,.0L132.4,.0L132.4,30.5L.0,30.5L.0,.0z"/><path stroke-width="1" fill="none" d="M.0,30.5L132.4,30.5" stroke="#454545"/><text xml:space="preserve" style="fill:#303030;font-family:Microsoft YaHei;font-size:10.00pt"><tspan x="12.5" y="21.3">binding inspector</tspan></text></g><g id="shape31" transform="translate(483.979843,156.000394)"><path fill-rule="nonzero" fill="#ffffff" d="M.0,.0L153.7,.0L153.7,30.5L.0,30.5L.0,.0z"/><path stroke-width="1" fill="none" d="M.0,30.5L153.7,30.5" stroke="#454545"/><text xml:space="preserve" style="fill:#303030;font-family:Microsoft YaHei;font-size:10.00pt"><tspan x="12.5" y="21.3">connection inspector</tspan></text></g><g id="shape32" transform="translate(615.339218,67.800394)"><path fill-rule="nonzero" fill="#ffffff" d="M.0,.0L97.8,.0L97.8,30.5L.0,30.5L.0,.0z"/><path stroke-width="1" fill="none" d="M.0,30.5L97.8,30.5" stroke="#454545"/><text xml:space="preserve" style="fill:#303030;font-family:Microsoft YaHei;font-size:10.00pt"><tspan x="12.5" y="21.3">bind to 设置</tspan></text></g><g id="shape33" transform="translate(738.167343,38.400394)"><path fill-rule="nonzero" fill="#ffffff" d="M.0,.0L108.2,.0L108.2,30.5L.0,30.5L.0,.0z"/><path stroke-width="1" fill="none" d="M.0,30.5L108.2,30.5" stroke="#454545"/><text xml:space="preserve" style="fill:#303030;font-family:Microsoft YaHei;font-size:10.00pt"><tspan x="12.5" y="21.3">controller key</tspan></text></g><g id="shape34" transform="translate(738.167343,97.200394)"><path fill-rule="nonzero" fill="#ffffff" d="M.0,.0L119.9,.0L119.9,30.5L.0,30.5L.0,.0z"/><path stroke-width="1" fill="none" d="M.0,30.5L119.9,30.5" stroke="#454545"/><text xml:space="preserve" style="fill:#303030;font-family:Microsoft YaHei;font-size:10.00pt"><tspan x="12.5" y="21.3">model key path</tspan></text></g><g id="shape35" transform="translate(883.026718,97.200394)"><path fill-rule="nonzero" fill="#ffffff" d="M.0,.0L75.0,.0L75.0,30.5L.0,30.5L.0,.0z"/><path stroke-width="1" fill="none" d="M.0,30.5L75.0,30.5" stroke="#454545"/><text xml:space="preserve" style="fill:#303030;font-family:Microsoft YaHei;font-size:10.00pt"><tspan x="12.5" y="21.3">绑定对象</tspan></text></g><g id="shape36" transform="translate(983.026718,77.600394)"><path fill-rule="nonzero" fill="#ffffff" d="M.0,.0L73.8,.0L73.8,30.5L.0,30.5L.0,.0z"/><path stroke-width="1" fill="none" d="M.0,30.5L73.8,30.5" stroke="#454545"/><text xml:space="preserve" style="fill:#303030;font-family:Microsoft YaHei;font-size:10.00pt"><tspan x="12.5" y="21.3">self.xxxx</tspan></text></g><g id="shape37" transform="translate(983.026718,116.800394)"><path fill-rule="nonzero" fill="#ffffff" d="M.0,.0L126.0,.0L126.0,30.5L.0,30.5L.0,.0z"/><path stroke-width="1" fill="none" d="M.0,30.5L126.0,30.5" stroke="#454545"/><text xml:space="preserve" style="fill:#303030;font-family:Microsoft YaHei;font-size:10.00pt"><tspan x="12.5" y="21.3">objectValue.xxxx</tspan></text></g><g id="shape38" transform="translate(871.354843,38.400394)"><path fill-rule="nonzero" fill="#ffffff" d="M.0,.0L74.2,.0L74.2,30.5L.0,30.5L.0,.0z"/><path stroke-width="1" fill="none" d="M.0,30.5L74.2,30.5" stroke="#454545"/><text xml:space="preserve" style="fill:#303030;font-family:Microsoft YaHei;font-size:10.00pt"><tspan x="12.5" y="21.3">预设 key</tspan></text></g><g id="shape39" transform="translate(970.511093,38.400394)"><path fill-rule="nonzero" fill="#ffffff" d="M.0,.0L156.2,.0L156.2,30.5L.0,30.5L.0,.0z"/><path stroke-width="1" fill="none" d="M.0,30.5L156.2,30.5" stroke="#454545"/><text xml:space="preserve" style="fill:#303030;font-family:Microsoft YaHei;font-size:10.00pt"><tspan x="12.5" y="21.3">数组 arrangedObjects</tspan></text></g><g id="shape40" transform="translate(357.979843,248.900394)"><path fill-rule="nonzero" fill="#ffffff" d="M.0,.0L75.0,.0L75.0,30.5L.0,30.5L.0,.0z"/><path stroke-width="1" fill="none" d="M.0,30.5L75.0,30.5" stroke="#454545"/><text xml:space="preserve" style="fill:#303030;font-family:Microsoft YaHei;font-size:10.00pt"><tspan x="12.5" y="21.3">绑定操作</tspan></text></g><g id="shape41" transform="translate(457.979843,248.900394)"><path fill-rule="nonzero" fill="#ffffff" d="M.0,.0L153.7,.0L153.7,30.5L.0,30.5L.0,.0z"/><path stroke-width="1" fill="none" d="M.0,30.5L153.7,30.5" stroke="#454545"/><text xml:space="preserve" style="fill:#303030;font-family:Microsoft YaHei;font-size:10.00pt"><tspan x="12.5" y="21.3">connection inspector</tspan></text></g><g id="shape42" transform="translate(636.698593,219.500394)"><path fill-rule="nonzero" fill="#ffffff" d="M.0,.0L456.5,.0L456.5,30.5L.0,30.5L.0,.0z"/><path stroke-width="1" fill="none" d="M.0,30.5L456.5,30.5" stroke="#454545"/><text xml:space="preserve" style="fill:#303030;font-family:Microsoft YaHei;font-size:10.00pt"><tspan x="12.5" y="21.3">control 拖动到 view controller 类，绑定到某个字段，从而获得控件的对象</tspan></text></g><g id="shape43" transform="translate(636.698593,278.300394)"><path fill-rule="nonzero" fill="#ffffff" d="M.0,.0L201.7,.0L201.7,30.5L.0,30.5L.0,.0z"/><path stroke-width="1" fill="none" d="M.0,30.5L201.7,30.5" stroke="#454545"/><text xml:space="preserve" style="fill:#303030;font-family:Microsoft YaHei;font-size:10.00pt"><tspan x="12.5" y="21.3">设置 dataSource 和 delegate </tspan></text></g><g id="shape44" transform="translate(863.354843,258.700394)"><path fill-rule="nonzero" fill="#ffffff" d="M.0,.0L280.5,.0L280.5,30.5L.0,30.5L.0,.0z"/><path stroke-width="1" fill="none" d="M.0,30.5L280.5,30.5" stroke="#454545"/><text xml:space="preserve" style="fill:#303030;font-family:Microsoft YaHei;font-size:10.00pt"><tspan x="12.5" y="21.3">代码继承 dataSource 和 delegate protocol</tspan></text></g><g id="shape45" transform="translate(863.354843,297.900394)"><path fill-rule="nonzero" fill="#ffffff" d="M.0,.0L430.3,.0L430.3,30.5L.0,30.5L.0,.0z"/><path stroke-width="1" fill="none" d="M.0,30.5L430.3,30.5" stroke="#454545"/><text xml:space="preserve" style="fill:#303030;font-family:Microsoft YaHei;font-size:10.00pt"><tspan x="12.5" y="21.3">connection inspector 中选择对应的 + 号拖到 view controller 控件上</tspan></text></g><g id="shape46" transform="translate(357.979843,356.700394)"><path fill-rule="nonzero" fill="#ffffff" d="M.0,.0L75.0,.0L75.0,30.5L.0,30.5L.0,.0z"/><path stroke-width="1" fill="none" d="M.0,30.5L75.0,30.5" stroke="#454545"/><text xml:space="preserve" style="fill:#303030;font-family:Microsoft YaHei;font-size:10.00pt"><tspan x="12.5" y="21.3">代码改动</tspan></text></g><g id="shape47" transform="translate(457.979843,356.700394)"><path fill-rule="nonzero" fill="#ffffff" d="M.0,.0L49.0,.0L49.0,30.5L.0,30.5L.0,.0z"/><path stroke-width="1" fill="none" d="M.0,30.5L49.0,30.5" stroke="#454545"/><text xml:space="preserve" style="fill:#303030;font-family:Microsoft YaHei;font-size:10.00pt"><tspan x="12.5" y="21.3">代码</tspan></text></g><g id="shape48" transform="translate(531.979843,337.100394)"><path fill-rule="nonzero" fill="#ffffff" d="M.0,.0L101.0,.0L101.0,30.5L.0,30.5L.0,.0z"/><path stroke-width="1" fill="none" d="M.0,30.5L101.0,30.5" stroke="#454545"/><text xml:space="preserve" style="fill:#303030;font-family:Microsoft YaHei;font-size:10.00pt"><tspan x="12.5" y="21.3">控件对象操作</tspan></text></g><g id="shape49" transform="translate(531.979843,376.300394)"><path fill-rule="nonzero" fill="#ffffff" d="M.0,.0L257.0,.0L257.0,30.5L.0,30.5L.0,.0z"/><path stroke-width="1" fill="none" d="M.0,30.5L257.0,30.5" stroke="#454545"/><text xml:space="preserve" style="fill:#303030;font-family:Microsoft YaHei;font-size:10.00pt"><tspan x="12.5" y="21.3">使用代码实现和静态绑定那样的绑定关系</tspan></text></g></g></svg>