<svg xmlns:xlink="http://www.w3.org/1999/xlink" height="1102" xmlns:ev="http://www.w3.org/2001/xml-events" viewBox="0 0 1537 1102" xmlns="http://www.w3.org/2000/svg" width="1537"><defs/><g transform="translate(5.5,5.5)" id="page1"><rect height="1092" x="0" fill="#ffffff" y="0" width="1527"/><g transform="translate(39.539800,529.350000)" id="shape1"><path stroke="#5a97fb" d="M34.5,.0L76.9,.0C96.0,.0,111.4,15.4,111.4,34.5C111.4,53.6,96.0,69.0,76.9,69.0L34.5,69.0C15.4,69.0,.0,53.6,.0,34.5C.0,15.4,15.4,.0,34.5,.0z" fill="#5a97fb" fill-rule="nonzero" stroke-width="3"/><text style="fill:#ffffff;font-family:Microsoft YaHei,PingFang SC,Mircrosoft YaHei,Arial;font-size:18.00pt;font-weight:bold" xml:space="preserve"><tspan style="font-family:Microsoft YaHei,PingFang SC,Mircrosoft YaHei,Arial" x="33.5" y="44.5">绑定</tspan></text></g><path stroke="#454545" stroke-linecap="round" d="M-12.5,47.2C5.0,47.2,-12.4,-47.2,12.5,-47.2" transform="translate(326.48,286.28)" fill="none" id="shape2" stroke-width="1"/><path stroke="#454545" stroke-linecap="round" d="M-12.5,-47.2C5.0,-47.2,-12.4,47.2,12.5,47.2" transform="translate(326.48,380.60)" fill="none" id="shape3" stroke-width="1"/><path stroke="#454545" stroke-linecap="round" d="M-12.5,33.1L-0.3,33.1C1.4,33.1,2.7,31.7,2.7,30.1L2.7,-24.1C2.7,-25.7,2.5,-28.2,3.4,-30.0C4.5,-31.8,6.4,-33.1,8.7,-33.1L12.5,-33.1" transform="translate(426.48,206.04)" fill="none" id="shape4" stroke-width="1"/><path stroke="#454545" stroke-linecap="round" d="M-12.5,-33.1L-0.3,-33.1C1.4,-33.1,2.7,-31.7,2.7,-30.1L2.7,24.1C2.7,25.7,2.5,28.2,3.4,30.0C4.5,31.8,6.4,33.1,8.7,33.1L12.5,33.1" transform="translate(426.48,272.19)" fill="none" id="shape5" stroke-width="1"/><path stroke="#454545" stroke-linecap="round" d="M-12.5,.0L-0.3,.0C1.4,.0,3.7,.0,5.7,.0C6.6,.0,7.6,.0,8.7,.0L12.5,.0" transform="translate(526.48,172.96)" fill="none" id="shape6" stroke-width="1"/><path stroke="#454545" stroke-linecap="round" d="M-12.5,.0L-0.3,.0C1.4,.0,3.7,.0,5.7,.0C6.6,.0,7.6,.0,8.7,.0L12.5,.0" transform="translate(552.48,305.26)" fill="none" id="shape7" stroke-width="1"/><path stroke="#454545" stroke-linecap="round" d="M-12.5,.0L-0.3,.0C1.4,.0,3.7,.0,5.7,.0C6.6,.0,7.6,.0,8.7,.0L12.5,.0" transform="translate(683.84,172.96)" fill="none" id="shape8" stroke-width="1"/><path stroke="#454545" stroke-linecap="round" d="M-12.5,31.9L-0.3,31.9C1.4,31.9,2.7,30.5,2.7,28.9L2.7,-22.8C2.7,-24.5,2.5,-27.0,3.4,-28.7C4.5,-30.6,6.4,-31.8,8.7,-31.8L12.5,-31.8" transform="translate(806.67,141.11)" fill="none" id="shape9" stroke-width="1"/><path stroke="#454545" stroke-linecap="round" d="M-12.5,-31.9L-0.3,-31.9C1.4,-31.9,2.7,-30.5,2.7,-28.9L2.7,22.9C2.7,24.5,2.5,27.0,3.4,28.7C4.5,30.6,6.4,31.9,8.7,31.9L12.5,31.9" transform="translate(806.67,204.81)" fill="none" id="shape10" stroke-width="1"/><path stroke="#454545" stroke-linecap="round" d="M-12.5,14.7L-0.3,14.7C1.4,14.7,2.7,13.4,2.7,11.7L2.7,-5.7C2.7,-7.4,2.5,-9.8,3.4,-11.6C4.5,-13.4,6.4,-14.7,8.7,-14.7L12.5,-14.7" transform="translate(951.53,221.96)" fill="none" id="shape11" stroke-width="1"/><path stroke="#454545" stroke-linecap="round" d="M-12.5,9.8L-0.3,9.8C1.4,9.8,2.7,8.5,2.7,6.8L2.7,-0.8C2.7,-2.5,2.5,-4.9,3.4,-6.7C4.5,-8.5,6.4,-9.8,8.7,-9.8L12.5,-9.8" transform="translate(1051.53,197.46)" fill="none" id="shape12" stroke-width="1"/><path stroke="#454545" stroke-linecap="round" d="M-12.5,.0C-2.5,.0,5.0,.0,12.5,.0" transform="translate(1241.88,226.86)" fill="none" id="shape13" stroke-width="1"/><path stroke="#454545" stroke-linecap="round" d="M-12.5,19.6L-0.3,19.6C1.4,19.6,2.7,18.3,2.7,16.6L2.7,-10.6C2.7,-12.3,2.5,-14.7,3.4,-16.5C4.5,-18.3,6.4,-19.6,8.7,-19.6L12.5,-19.6" transform="translate(939.85,89.66)" fill="none" id="shape14" stroke-width="1"/><path stroke="#454545" stroke-linecap="round" d="M-12.5,.0L-0.3,.0C1.4,.0,3.7,.0,5.7,.0C6.6,.0,7.6,.0,8.7,.0L12.5,.0" transform="translate(1103.18,70.06)" fill="none" id="shape15" stroke-width="1"/><path stroke="#454545" stroke-linecap="round" d="M-12.5,27.0L-0.3,27.0C1.4,27.0,2.7,25.6,2.7,24.0L2.7,-18.0C2.7,-19.6,2.5,-22.1,3.4,-23.8C4.5,-25.7,6.4,-27.0,8.7,-27.0L12.5,-27.0" transform="translate(426.48,400.81)" fill="none" id="shape16" stroke-width="1"/><path stroke="#454545" stroke-linecap="round" d="M-12.5,.0C-2.5,.0,5.0,.0,12.5,.0" transform="translate(526.48,373.86)" fill="none" id="shape17" stroke-width="1"/><path stroke="#454545" stroke-linecap="round" d="M-12.5,14.7C.8,14.7,-2.8,-14.7,12.5,-14.7" transform="translate(705.20,359.16)" fill="none" id="shape18" stroke-width="1"/><path stroke="#454545" stroke-linecap="round" d="M-12.5,-14.7C.8,-14.7,-2.8,14.7,12.5,14.7" transform="translate(705.20,388.56)" fill="none" id="shape19" stroke-width="1"/><path stroke="#454545" stroke-linecap="round" d="M-12.5,9.8C-0.2,9.8,-0.3,-9.8,12.5,-9.8" transform="translate(931.85,393.46)" fill="none" id="shape20" stroke-width="1"/><path stroke="#454545" stroke-linecap="round" d="M-12.5,-9.8C-0.2,-9.8,-0.3,9.8,12.5,9.8" transform="translate(931.85,413.06)" fill="none" id="shape21" stroke-width="1"/><path stroke="#454545" stroke-linecap="round" d="M-12.5,-27.0L-0.3,-27.0C1.4,-27.0,2.7,-25.6,2.7,-24.0L2.7,17.9C2.7,19.6,2.5,22.1,3.4,23.8C4.5,25.7,6.4,26.9,8.7,26.9L12.5,26.9" transform="translate(426.48,454.71)" fill="none" id="shape22" stroke-width="1"/><path stroke="#454545" stroke-linecap="round" d="M-12.5,.0C-2.5,.0,5.0,.0,12.5,.0" transform="translate(526.48,481.66)" fill="none" id="shape23" stroke-width="1"/><path stroke="#454545" stroke-linecap="round" d="M-12.5,9.8C-0.2,9.8,-0.3,-9.8,12.5,-9.8" transform="translate(600.48,471.86)" fill="none" id="shape24" stroke-width="1"/><path stroke="#454545" stroke-linecap="round" d="M-12.5,-9.8C-0.2,-9.8,-0.3,9.8,12.5,9.8" transform="translate(600.48,491.46)" fill="none" id="shape25" stroke-width="1"/><path stroke="#454545" stroke-linecap="round" d="M-12.5,.0C-2.5,.0,5.0,.0,12.5,.0" transform="translate(461.39,613.76)" fill="none" id="shape26" stroke-width="1"/><path stroke="#454545" stroke-linecap="round" d="M-12.5,14.7C.8,14.7,-2.8,-14.7,12.5,-14.7" transform="translate(561.39,599.06)" fill="none" id="shape27" stroke-width="1"/><path stroke="#454545" stroke-linecap="round" d="M-12.5,.0C-2.5,.0,5.0,.0,12.5,.0" transform="translate(752.39,584.36)" fill="none" id="shape28" stroke-width="1"/><path stroke="#454545" stroke-linecap="round" d="M-12.5,-14.7C.8,-14.7,-2.8,14.7,12.5,14.7" transform="translate(561.39,628.46)" fill="none" id="shape29" stroke-width="1"/><path stroke="#454545" stroke-linecap="round" d="M-12.5,.0L-0.3,.0C1.4,.0,3.7,.0,5.7,.0C6.6,.0,7.6,.0,8.7,.0L12.5,.0" transform="translate(939.85,109.26)" fill="none" id="shape30" stroke-width="1"/><path stroke="#454545" stroke-linecap="round" d="M-12.5,-14.7L-0.3,-14.7C1.4,-14.7,2.7,-13.4,2.7,-11.7L2.7,5.7C2.7,7.4,2.5,9.8,3.4,11.6C4.5,13.4,6.4,14.7,8.7,14.7L12.5,14.7" transform="translate(951.53,251.36)" fill="none" id="shape31" stroke-width="1"/><path stroke="#454545" stroke-linecap="round" d="M-12.5,9.8C-0.2,9.8,-0.3,-9.8,12.5,-9.8" transform="translate(941.23,574.56)" fill="none" id="shape32" stroke-width="1"/><path stroke="#454545" stroke-linecap="round" d="M-12.5,-9.8C-0.2,-9.8,-0.3,9.8,12.5,9.8" transform="translate(941.23,594.16)" fill="none" id="shape33" stroke-width="1"/><path stroke="#454545" stroke-linecap="round" d="M-3.6,115.2L20.0,115.2C21.6,115.2,23.0,113.9,23.0,112.2L23.0,-106.2C23.0,-107.9,22.7,-110.3,23.7,-112.1C24.7,-113.9,26.7,-115.2,29.0,-115.2L59.4,-115.2" transform="translate(154.62,448.64)" fill="none" id="shape34" stroke-width="3"/><path stroke="#454545" stroke-linecap="round" d="M-3.6,-115.2L20.0,-115.2C21.6,-115.2,23.0,-113.9,23.0,-112.2L23.0,106.2C23.0,107.9,22.7,110.3,23.7,112.1C24.7,113.9,26.7,115.2,29.0,115.2L59.4,115.2" transform="translate(154.62,679.06)" fill="none" id="shape35" stroke-width="3"/><path stroke="#454545" stroke-linecap="round" d="M-12.5,.0C-2.5,.0,5.0,.0,12.5,.0" transform="translate(1045.73,643.16)" fill="none" id="shape36" stroke-width="1"/><path stroke="#454545" stroke-linecap="round" d="M-12.5,5.1C-1.3,5.1,2.2,-5.1,12.5,-5.1" transform="translate(345.48,789.16)" fill="none" id="shape37" stroke-width="1"/><path stroke="#454545" stroke-linecap="round" d="M-12.5,4.5C-1.4,4.5,2.5,-4.5,12.5,-4.5" transform="translate(647.17,726.06)" fill="none" id="shape38" stroke-width="1"/><path stroke="#454545" stroke-linecap="round" d="M-12.5,-24.1C2.7,-24.1,-7.0,24.1,12.5,24.1" transform="translate(647.17,754.66)" fill="none" id="shape39" stroke-width="1"/><path stroke="#454545" stroke-linecap="round" d="M-12.5,-19.6L-0.3,-19.6C1.4,-19.6,2.7,-18.3,2.7,-16.6L2.7,10.6C2.7,12.3,2.5,14.7,3.4,16.5C4.5,18.3,6.4,19.6,8.7,19.6L12.5,19.6" transform="translate(939.85,128.86)" fill="none" id="shape40" stroke-width="1"/><path stroke="#454545" stroke-linecap="round" d="M-12.5,-9.8L-0.3,-9.8C1.4,-9.8,2.7,-8.5,2.7,-6.8L2.7,.8C2.7,2.5,2.5,4.9,3.4,6.7C4.5,8.5,6.4,9.8,8.7,9.8L12.5,9.8" transform="translate(1051.53,217.06)" fill="none" id="shape41" stroke-width="1"/><path stroke="#454545" stroke-linecap="round" d="M-12.5,90.3C5.0,90.3,-12.5,-90.3,12.5,-90.3" transform="translate(345.48,704.01)" fill="none" id="shape42" stroke-width="1"/><path stroke="#454545" stroke-linecap="round" d="M-12.5,-90.3C5.0,-90.3,-12.5,90.3,12.5,90.3" transform="translate(345.48,884.51)" fill="none" id="shape43" stroke-width="1"/><path stroke="#454545" stroke-linecap="round" d="M-12.5,39.2C4.6,39.2,-11.5,-39.2,12.5,-39.2" transform="translate(442.25,935.56)" fill="none" id="shape44" stroke-width="1"/><path stroke="#454545" stroke-linecap="round" d="M-12.5,19.6C1.8,19.6,-5.1,-19.6,12.5,-19.6" transform="translate(442.25,955.16)" fill="none" id="shape45" stroke-width="1"/><path stroke="#454545" stroke-linecap="round" d="M-12.5,.0C-2.5,.0,5.0,.0,12.5,.0" transform="translate(442.25,974.76)" fill="none" id="shape46" stroke-width="1"/><path stroke="#454545" stroke-linecap="round" d="M-12.5,-19.6C1.8,-19.6,-5.1,19.6,12.5,19.6" transform="translate(442.25,994.36)" fill="none" id="shape47" stroke-width="1"/><path stroke="#454545" stroke-linecap="round" d="M-12.5,.0C-2.5,.0,5.0,.0,12.5,.0" transform="translate(916.23,1013.96)" fill="none" id="shape48" stroke-width="1"/><path stroke="#454545" stroke-linecap="round" d="M-12.5,-39.2C4.6,-39.2,-11.5,39.2,12.5,39.2" transform="translate(442.25,1013.96)" fill="none" id="shape49" stroke-width="1"/><path stroke="#454545" stroke-linecap="round" d="M-12.5,26.8C3.1,26.8,-8.0,-26.8,12.5,-26.8" transform="translate(544.96,757.31)" fill="none" id="shape50" stroke-width="1"/><path stroke="#454545" stroke-linecap="round" d="M-12.5,-26.8C3.1,-26.8,-8.0,26.8,12.5,26.8" transform="translate(544.96,810.81)" fill="none" id="shape51" stroke-width="1"/><path stroke="#454545" stroke-linecap="round" d="M-12.5,24.1C2.7,24.1,-7.0,-24.1,12.5,-24.1" transform="translate(647.17,706.46)" fill="none" id="shape52" stroke-width="1"/><path stroke="#454545" stroke-linecap="round" d="M-12.5,9.8C-0.2,9.8,-0.3,-9.8,12.5,-9.8" transform="translate(663.04,827.76)" fill="none" id="shape53" stroke-width="1"/><path stroke="#454545" stroke-linecap="round" d="M-12.5,-9.8C-0.2,-9.8,-0.3,9.8,12.5,9.8" transform="translate(663.04,847.36)" fill="none" id="shape54" stroke-width="1"/><g transform="translate(338.979800,208.612500)" id="shape55"><path d="M.0,.0L75.0,.0L75.0,30.5L.0,30.5L.0,.0z" fill="#ffffff" fill-rule="nonzero"/><path stroke="#454545" d="M.0,30.5L75.0,30.5" fill="none" stroke-width="1"/><text style="fill:#303030;font-family:Microsoft YaHei,PingFang SC,Mircrosoft YaHei,Arial;font-size:10.00pt" xml:space="preserve"><tspan style="font-family:Microsoft YaHei,PingFang SC,Mircrosoft YaHei,Arial" x="12.5" y="21.3">静态绑定</tspan></text></g><g transform="translate(338.979800,397.262500)" id="shape56"><path d="M.0,.0L75.0,.0L75.0,30.5L.0,30.5L.0,.0z" fill="#ffffff" fill-rule="nonzero"/><path stroke="#454545" d="M.0,30.5L75.0,30.5" fill="none" stroke-width="1"/><text style="fill:#303030;font-family:Microsoft YaHei,PingFang SC,Mircrosoft YaHei,Arial;font-size:10.00pt" xml:space="preserve"><tspan style="font-family:Microsoft YaHei,PingFang SC,Mircrosoft YaHei,Arial" x="12.5" y="21.3">动态绑定</tspan></text></g><g transform="translate(438.979800,142.462500)" id="shape57"><path d="M.0,.0L75.0,.0L75.0,30.5L.0,30.5L.0,.0z" fill="#ffffff" fill-rule="nonzero"/><path stroke="#454545" d="M.0,30.5L75.0,30.5" fill="none" stroke-width="1"/><text style="fill:#303030;font-family:Microsoft YaHei,PingFang SC,Mircrosoft YaHei,Arial;font-size:10.00pt" xml:space="preserve"><tspan style="font-family:Microsoft YaHei,PingFang SC,Mircrosoft YaHei,Arial" x="12.5" y="21.3">绑定操作</tspan></text></g><g transform="translate(438.979800,274.762500)" id="shape58"><path d="M.0,.0L101.0,.0L101.0,30.5L.0,30.5L.0,.0z" fill="#ffffff" fill-rule="nonzero"/><path stroke="#454545" d="M.0,30.5L101.0,30.5" fill="none" stroke-width="1"/><text style="fill:#303030;font-family:Microsoft YaHei,PingFang SC,Mircrosoft YaHei,Arial;font-size:10.00pt" xml:space="preserve"><tspan style="font-family:Microsoft YaHei,PingFang SC,Mircrosoft YaHei,Arial" x="12.5" y="21.3">查看绑定关系</tspan></text></g><g transform="translate(538.979800,142.462500)" id="shape59"><path d="M.0,.0L132.4,.0L132.4,30.5L.0,30.5L.0,.0z" fill="#ffffff" fill-rule="nonzero"/><path stroke="#454545" d="M.0,30.5L132.4,30.5" fill="none" stroke-width="1"/><text style="fill:#303030;font-family:Microsoft YaHei,PingFang SC,Mircrosoft YaHei,Arial;font-size:10.00pt" xml:space="preserve"><tspan style="font-family:Microsoft YaHei,PingFang SC,Mircrosoft YaHei,Arial" x="12.5" y="21.3">binding inspector</tspan></text></g><g transform="translate(564.979800,274.762500)" id="shape60"><path d="M.0,.0L153.7,.0L153.7,30.5L.0,30.5L.0,.0z" fill="#ffffff" fill-rule="nonzero"/><path stroke="#454545" d="M.0,30.5L153.7,30.5" fill="none" stroke-width="1"/><text style="fill:#303030;font-family:Microsoft YaHei,PingFang SC,Mircrosoft YaHei,Arial;font-size:10.00pt" xml:space="preserve"><tspan style="font-family:Microsoft YaHei,PingFang SC,Mircrosoft YaHei,Arial" x="12.5" y="21.3">connection inspector</tspan></text></g><g transform="translate(696.338800,142.462500)" id="shape61"><path d="M.0,.0L97.8,.0L97.8,30.5L.0,30.5L.0,.0z" fill="#ffffff" fill-rule="nonzero"/><path stroke="#454545" d="M.0,30.5L97.8,30.5" fill="none" stroke-width="1"/><text style="fill:#303030;font-family:Microsoft YaHei,PingFang SC,Mircrosoft YaHei,Arial;font-size:10.00pt" xml:space="preserve"><tspan style="font-family:Microsoft YaHei,PingFang SC,Mircrosoft YaHei,Arial" x="12.5" y="21.3">bind to 设置</tspan></text></g><g transform="translate(819.166900,78.762500)" id="shape62"><path d="M.0,.0L108.2,.0L108.2,30.5L.0,30.5L.0,.0z" fill="#ffffff" fill-rule="nonzero"/><path stroke="#454545" d="M.0,30.5L108.2,30.5" fill="none" stroke-width="1"/><text style="fill:#303030;font-family:Microsoft YaHei,PingFang SC,Mircrosoft YaHei,Arial;font-size:10.00pt" xml:space="preserve"><tspan style="font-family:Microsoft YaHei,PingFang SC,Mircrosoft YaHei,Arial" x="12.5" y="21.3">controller key</tspan></text></g><g transform="translate(819.166900,206.162500)" id="shape63"><path d="M.0,.0L119.9,.0L119.9,30.5L.0,30.5L.0,.0z" fill="#ffffff" fill-rule="nonzero"/><path stroke="#454545" d="M.0,30.5L119.9,30.5" fill="none" stroke-width="1"/><text style="fill:#303030;font-family:Microsoft YaHei,PingFang SC,Mircrosoft YaHei,Arial;font-size:10.00pt" xml:space="preserve"><tspan style="font-family:Microsoft YaHei,PingFang SC,Mircrosoft YaHei,Arial" x="12.5" y="21.3">model key path</tspan></text></g><g transform="translate(964.025900,176.762500)" id="shape64"><path d="M.0,.0L75.0,.0L75.0,30.5L.0,30.5L.0,.0z" fill="#ffffff" fill-rule="nonzero"/><path stroke="#454545" d="M.0,30.5L75.0,30.5" fill="none" stroke-width="1"/><text style="fill:#303030;font-family:Microsoft YaHei,PingFang SC,Mircrosoft YaHei,Arial;font-size:10.00pt" xml:space="preserve"><tspan style="font-family:Microsoft YaHei,PingFang SC,Mircrosoft YaHei,Arial" x="12.5" y="21.3">绑定对象</tspan></text></g><g transform="translate(1064.025900,157.162500)" id="shape65"><path d="M.0,.0L73.8,.0L73.8,30.5L.0,30.5L.0,.0z" fill="#ffffff" fill-rule="nonzero"/><path stroke="#454545" d="M.0,30.5L73.8,30.5" fill="none" stroke-width="1"/><text style="fill:#303030;font-family:Microsoft YaHei,PingFang SC,Mircrosoft YaHei,Arial;font-size:10.00pt" xml:space="preserve"><tspan style="font-family:Microsoft YaHei,PingFang SC,Mircrosoft YaHei,Arial" x="12.5" y="21.3">self.xxxx</tspan></text></g><g transform="translate(1254.384900,196.362500)" id="shape66"><path d="M.0,.0L233.8,.0L233.8,30.5L.0,30.5L.0,.0z" fill="#ffffff" fill-rule="nonzero"/><path stroke="#454545" d="M.0,30.5L233.8,30.5" fill="none" stroke-width="1"/><text style="fill:#303030;font-family:Microsoft YaHei,PingFang SC,Mircrosoft YaHei,Arial;font-size:10.00pt" xml:space="preserve"><tspan style="font-family:Microsoft YaHei,PingFang SC,Mircrosoft YaHei,Arial" x="12.5" y="21.3">对象下的某个字段 objectValue.xxxx</tspan></text></g><g transform="translate(952.354900,39.562500)" id="shape67"><path d="M.0,.0L138.3,.0L138.3,30.5L.0,30.5L.0,.0z" fill="#ffffff" fill-rule="nonzero"/><path stroke="#454545" d="M.0,30.5L138.3,30.5" fill="none" stroke-width="1"/><text style="fill:#303030;font-family:Microsoft YaHei,PingFang SC,Mircrosoft YaHei,Arial;font-size:10.00pt" xml:space="preserve"><tspan style="font-family:Microsoft YaHei,PingFang SC,Mircrosoft YaHei,Arial" x="12.5" y="21.3">cocoa 定义好的 var</tspan></text></g><g transform="translate(1115.682900,39.562500)" id="shape68"><path d="M.0,.0L156.2,.0L156.2,30.5L.0,30.5L.0,.0z" fill="#ffffff" fill-rule="nonzero"/><path stroke="#454545" d="M.0,30.5L156.2,30.5" fill="none" stroke-width="1"/><text style="fill:#303030;font-family:Microsoft YaHei,PingFang SC,Mircrosoft YaHei,Arial;font-size:10.00pt" xml:space="preserve"><tspan style="font-family:Microsoft YaHei,PingFang SC,Mircrosoft YaHei,Arial" x="12.5" y="21.3">数组 arrangedObjects</tspan></text></g><g transform="translate(438.979800,343.362500)" id="shape69"><path d="M.0,.0L75.0,.0L75.0,30.5L.0,30.5L.0,.0z" fill="#ffffff" fill-rule="nonzero"/><path stroke="#454545" d="M.0,30.5L75.0,30.5" fill="none" stroke-width="1"/><text style="fill:#303030;font-family:Microsoft YaHei,PingFang SC,Mircrosoft YaHei,Arial;font-size:10.00pt" xml:space="preserve"><tspan style="font-family:Microsoft YaHei,PingFang SC,Mircrosoft YaHei,Arial" x="12.5" y="21.3">绑定操作</tspan></text></g><g transform="translate(538.979800,343.362500)" id="shape70"><path d="M.0,.0L153.7,.0L153.7,30.5L.0,30.5L.0,.0z" fill="#ffffff" fill-rule="nonzero"/><path stroke="#454545" d="M.0,30.5L153.7,30.5" fill="none" stroke-width="1"/><text style="fill:#303030;font-family:Microsoft YaHei,PingFang SC,Mircrosoft YaHei,Arial;font-size:10.00pt" xml:space="preserve"><tspan style="font-family:Microsoft YaHei,PingFang SC,Mircrosoft YaHei,Arial" x="12.5" y="21.3">connection inspector</tspan></text></g><g transform="translate(717.698800,313.962500)" id="shape71"><path d="M.0,.0L456.5,.0L456.5,30.5L.0,30.5L.0,.0z" fill="#ffffff" fill-rule="nonzero"/><path stroke="#454545" d="M.0,30.5L456.5,30.5" fill="none" stroke-width="1"/><text style="fill:#303030;font-family:Microsoft YaHei,PingFang SC,Mircrosoft YaHei,Arial;font-size:10.00pt" xml:space="preserve"><tspan style="font-family:Microsoft YaHei,PingFang SC,Mircrosoft YaHei,Arial" x="12.5" y="21.3">control 拖动到 view controller 类，绑定到某个字段，从而获得控件的对象</tspan></text></g><g transform="translate(717.698800,372.762500)" id="shape72"><path d="M.0,.0L201.7,.0L201.7,30.5L.0,30.5L.0,.0z" fill="#ffffff" fill-rule="nonzero"/><path stroke="#454545" d="M.0,30.5L201.7,30.5" fill="none" stroke-width="1"/><text style="fill:#303030;font-family:Microsoft YaHei,PingFang SC,Mircrosoft YaHei,Arial;font-size:10.00pt" xml:space="preserve"><tspan style="font-family:Microsoft YaHei,PingFang SC,Mircrosoft YaHei,Arial" x="12.5" y="21.3">设置 dataSource 和 delegate </tspan></text></g><g transform="translate(944.354800,353.162500)" id="shape73"><path d="M.0,.0L280.5,.0L280.5,30.5L.0,30.5L.0,.0z" fill="#ffffff" fill-rule="nonzero"/><path stroke="#454545" d="M.0,30.5L280.5,30.5" fill="none" stroke-width="1"/><text style="fill:#303030;font-family:Microsoft YaHei,PingFang SC,Mircrosoft YaHei,Arial;font-size:10.00pt" xml:space="preserve"><tspan style="font-family:Microsoft YaHei,PingFang SC,Mircrosoft YaHei,Arial" x="12.5" y="21.3">代码继承 dataSource 和 delegate protocol</tspan></text></g><g transform="translate(944.354800,392.362500)" id="shape74"><path d="M.0,.0L430.3,.0L430.3,30.5L.0,30.5L.0,.0z" fill="#ffffff" fill-rule="nonzero"/><path stroke="#454545" d="M.0,30.5L430.3,30.5" fill="none" stroke-width="1"/><text style="fill:#303030;font-family:Microsoft YaHei,PingFang SC,Mircrosoft YaHei,Arial;font-size:10.00pt" xml:space="preserve"><tspan style="font-family:Microsoft YaHei,PingFang SC,Mircrosoft YaHei,Arial" x="12.5" y="21.3">connection inspector 中选择对应的 + 号拖到 view controller 控件上</tspan></text></g><g transform="translate(438.979800,451.162500)" id="shape75"><path d="M.0,.0L75.0,.0L75.0,30.5L.0,30.5L.0,.0z" fill="#ffffff" fill-rule="nonzero"/><path stroke="#454545" d="M.0,30.5L75.0,30.5" fill="none" stroke-width="1"/><text style="fill:#303030;font-family:Microsoft YaHei,PingFang SC,Mircrosoft YaHei,Arial;font-size:10.00pt" xml:space="preserve"><tspan style="font-family:Microsoft YaHei,PingFang SC,Mircrosoft YaHei,Arial" x="12.5" y="21.3">代码改动</tspan></text></g><g transform="translate(538.979800,451.162500)" id="shape76"><path d="M.0,.0L49.0,.0L49.0,30.5L.0,30.5L.0,.0z" fill="#ffffff" fill-rule="nonzero"/><path stroke="#454545" d="M.0,30.5L49.0,30.5" fill="none" stroke-width="1"/><text style="fill:#303030;font-family:Microsoft YaHei,PingFang SC,Mircrosoft YaHei,Arial;font-size:10.00pt" xml:space="preserve"><tspan style="font-family:Microsoft YaHei,PingFang SC,Mircrosoft YaHei,Arial" x="12.5" y="21.3">代码</tspan></text></g><g transform="translate(612.979800,431.562500)" id="shape77"><path d="M.0,.0L101.0,.0L101.0,30.5L.0,30.5L.0,.0z" fill="#ffffff" fill-rule="nonzero"/><path stroke="#454545" d="M.0,30.5L101.0,30.5" fill="none" stroke-width="1"/><text style="fill:#303030;font-family:Microsoft YaHei,PingFang SC,Mircrosoft YaHei,Arial;font-size:10.00pt" xml:space="preserve"><tspan style="font-family:Microsoft YaHei,PingFang SC,Mircrosoft YaHei,Arial" x="12.5" y="21.3">控件对象操作</tspan></text></g><g transform="translate(612.979800,470.762500)" id="shape78"><path d="M.0,.0L257.0,.0L257.0,30.5L.0,30.5L.0,.0z" fill="#ffffff" fill-rule="nonzero"/><path stroke="#454545" d="M.0,30.5L257.0,30.5" fill="none" stroke-width="1"/><text style="fill:#303030;font-family:Microsoft YaHei,PingFang SC,Mircrosoft YaHei,Arial;font-size:10.00pt" xml:space="preserve"><tspan style="font-family:Microsoft YaHei,PingFang SC,Mircrosoft YaHei,Arial" x="12.5" y="21.3">使用代码实现和静态绑定那样的绑定关系</tspan></text></g><g transform="translate(473.886050,583.262500)" id="shape79"><path d="M.0,.0L75.0,.0L75.0,30.5L.0,30.5L.0,.0z" fill="#ffffff" fill-rule="nonzero"/><path stroke="#454545" d="M.0,30.5L75.0,30.5" fill="none" stroke-width="1"/><text style="fill:#303030;font-family:Microsoft YaHei,PingFang SC,Mircrosoft YaHei,Arial;font-size:10.00pt" xml:space="preserve"><tspan style="font-family:Microsoft YaHei,PingFang SC,Mircrosoft YaHei,Arial" x="12.5" y="21.3">消息机制</tspan></text></g><g transform="translate(573.886050,553.862500)" id="shape80"><path d="M.0,.0L166.0,.0L166.0,30.5L.0,30.5L.0,.0z" fill="#ffffff" fill-rule="nonzero"/><path stroke="#454545" d="M.0,30.5L166.0,30.5" fill="none" stroke-width="1"/><text style="fill:#303030;font-family:Microsoft YaHei,PingFang SC,Mircrosoft YaHei,Arial;font-size:10.00pt" xml:space="preserve"><tspan style="font-family:Microsoft YaHei,PingFang SC,Mircrosoft YaHei,Arial" x="12.5" y="21.3">本质上其实就是函数调用</tspan></text></g><g transform="translate(764.886050,553.862500)" id="shape81"><path d="M.0,.0L163.8,.0L163.8,30.5L.0,30.5L.0,.0z" fill="#ffffff" fill-rule="nonzero"/><path stroke="#454545" d="M.0,30.5L163.8,30.5" fill="none" stroke-width="1"/><text style="fill:#303030;font-family:Microsoft YaHei,PingFang SC,Mircrosoft YaHei,Arial;font-size:10.00pt" xml:space="preserve"><tspan style="font-family:Microsoft YaHei,PingFang SC,Mircrosoft YaHei,Arial" x="12.5" y="21.3">receiver.action(sender)</tspan></text></g><g transform="translate(573.886050,612.662500)" id="shape82"><path d="M.0,.0L459.3,.0L459.3,30.5L.0,30.5L.0,.0z" fill="#ffffff" fill-rule="nonzero"/><path stroke="#454545" d="M.0,30.5L459.3,30.5" fill="none" stroke-width="1"/><text style="fill:#303030;font-family:Microsoft YaHei,PingFang SC,Mircrosoft YaHei,Arial;font-size:10.00pt" xml:space="preserve"><tspan style="font-family:Microsoft YaHei,PingFang SC,Mircrosoft YaHei,Arial" x="12.5" y="21.3">在 connection inspector 上的 Action 栏可以查看到控件都支持什么 action</tspan></text></g><g transform="translate(952.354900,78.762500)" id="shape83"><path d="M.0,.0L258.5,.0L258.5,30.5L.0,30.5L.0,.0z" fill="#ffffff" fill-rule="nonzero"/><path stroke="#454545" d="M.0,30.5L258.5,30.5" fill="none" stroke-width="1"/><text style="fill:#303030;font-family:Microsoft YaHei,PingFang SC,Mircrosoft YaHei,Arial;font-size:10.00pt" xml:space="preserve"><tspan style="font-family:Microsoft YaHei,PingFang SC,Mircrosoft YaHei,Arial" x="12.5" y="21.3">cocoa 控件对应的类已经定义好的字段值</tspan></text></g><g transform="translate(964.025900,235.562500)" id="shape84"><path d="M.0,.0L140.0,.0L140.0,30.5L.0,30.5L.0,.0z" fill="#ffffff" fill-rule="nonzero"/><path stroke="#454545" d="M.0,30.5L140.0,30.5" fill="none" stroke-width="1"/><text style="fill:#303030;font-family:Microsoft YaHei,PingFang SC,Mircrosoft YaHei,Arial;font-size:10.00pt" xml:space="preserve"><tspan style="font-family:Microsoft YaHei,PingFang SC,Mircrosoft YaHei,Arial" x="12.5" y="21.3">用户自定义的字段值</tspan></text></g><g transform="translate(953.729800,534.262500)" id="shape85"><path d="M.0,.0L293.5,.0L293.5,30.5L.0,30.5L.0,.0z" fill="#ffffff" fill-rule="nonzero"/><path stroke="#454545" d="M.0,30.5L293.5,30.5" fill="none" stroke-width="1"/><text style="fill:#303030;font-family:Microsoft YaHei,PingFang SC,Mircrosoft YaHei,Arial;font-size:10.00pt" xml:space="preserve"><tspan style="font-family:Microsoft YaHei,PingFang SC,Mircrosoft YaHei,Arial" x="12.5" y="21.3">通过 storyboard 的 control 拖拉操作发送消息</tspan></text></g><g transform="translate(953.729800,573.462500)" id="shape86"><path d="M.0,.0L464.9,.0L464.9,30.5L.0,30.5L.0,.0z" fill="#ffffff" fill-rule="nonzero"/><path stroke="#454545" d="M.0,30.5L464.9,30.5" fill="none" stroke-width="1"/><text style="fill:#303030;font-family:Microsoft YaHei,PingFang SC,Mircrosoft YaHei,Arial;font-size:10.00pt" xml:space="preserve"><tspan style="font-family:Microsoft YaHei,PingFang SC,Mircrosoft YaHei,Arial" x="12.5" y="21.3">通过 control 拖拉操作在代码中获得控件对象，在代码中直接调用对应的函数</tspan></text></g><g transform="translate(213.979800,309.437500)" id="shape87"><path stroke="#454545" d="M4.0,.0L96.0,.0C98.2,.0,100.0,1.8,100.0,4.0L100.0,44.0C100.0,46.2,98.2,48.0,96.0,48.0L4.0,48.0C1.8,48.0,.0,46.2,.0,44.0L.0,4.0C.0,1.8,1.8,.0,4.0,.0z" fill="#ffffff" fill-rule="nonzero" stroke-width="2"/><text style="fill:#303030;font-family:Microsoft YaHei,PingFang SC,Mircrosoft YaHei,Arial;font-size:14.00pt;font-weight:bold" xml:space="preserve"><tspan style="font-family:Microsoft YaHei,PingFang SC,Mircrosoft YaHei,Arial" x="23.3" y="33.0">绑定值</tspan></text></g><g transform="translate(213.979800,770.262500)" id="shape88"><path stroke="#454545" d="M4.0,.0L115.0,.0C117.2,.0,119.0,1.8,119.0,4.0L119.0,44.0C119.0,46.2,117.2,48.0,115.0,48.0L4.0,48.0C1.8,48.0,.0,46.2,.0,44.0L.0,4.0C.0,1.8,1.8,.0,4.0,.0z" fill="#ffffff" fill-rule="nonzero" stroke-width="2"/><text style="fill:#303030;font-family:Microsoft YaHei,PingFang SC,Mircrosoft YaHei,Arial;font-size:14.00pt;font-weight:bold" xml:space="preserve"><tspan style="font-family:Microsoft YaHei,PingFang SC,Mircrosoft YaHei,Arial" x="23.3" y="33.0">绑定动作</tspan></text></g><g transform="translate(1058.229800,612.662500)" id="shape89"><path d="M.0,.0L344.0,.0L344.0,30.5L.0,30.5L.0,.0z" fill="#ffffff" fill-rule="nonzero"/><path stroke="#454545" d="M.0,30.5L344.0,30.5" fill="none" stroke-width="1"/><text style="fill:#303030;font-family:Microsoft YaHei,PingFang SC,Mircrosoft YaHei,Arial;font-size:10.00pt" xml:space="preserve"><tspan style="font-family:Microsoft YaHei,PingFang SC,Mircrosoft YaHei,Arial" x="12.5" y="21.3">拖动 action 函数后的 + 号可以绑定到某个 sender 控件</tspan></text></g><g transform="translate(357.979800,753.562500)" id="shape90"><path d="M.0,.0L174.5,.0L174.5,30.5L.0,30.5L.0,.0z" fill="#ffffff" fill-rule="nonzero"/><path stroke="#454545" d="M.0,30.5L174.5,30.5" fill="none" stroke-width="1"/><text style="fill:#303030;font-family:Microsoft YaHei,PingFang SC,Mircrosoft YaHei,Arial;font-size:10.00pt" xml:space="preserve"><tspan style="font-family:Microsoft YaHei,PingFang SC,Mircrosoft YaHei,Arial" x="12.5" y="21.3">回调机制，基于 protocol </tspan></text></g><g transform="translate(659.667300,691.062500)" id="shape91"><path d="M.0,.0L234.1,.0L234.1,30.5L.0,30.5L.0,.0z" fill="#ffffff" fill-rule="nonzero"/><path stroke="#454545" d="M.0,30.5L234.1,30.5" fill="none" stroke-width="1"/><text style="fill:#303030;font-family:Microsoft YaHei,PingFang SC,Mircrosoft YaHei,Arial;font-size:10.00pt" xml:space="preserve"><tspan style="font-family:Microsoft YaHei,PingFang SC,Mircrosoft YaHei,Arial" x="12.5" y="21.3">protocol 的根是 NSObjectProtocol</tspan></text></g><g transform="translate(659.667300,730.262500)" id="shape92"><path d="M.0,.0L515.0,.0L515.0,48.5L.0,48.5L.0,.0z" fill="#ffffff" fill-rule="nonzero"/><path stroke="#454545" d="M.0,48.5L515.0,48.5" fill="none" stroke-width="1"/><text style="fill:#303030;font-family:Microsoft YaHei,PingFang SC,Mircrosoft YaHei,Arial;font-size:10.00pt" xml:space="preserve"><tspan style="font-family:Microsoft YaHei,PingFang SC,Mircrosoft YaHei,Arial" x="14.3" y="21.3">控件 NSXXXX，对应的 delegate 是 NSXXXXDelegate，注意有些动作回调放在根深</tspan><tspan style="font-family:Microsoft YaHei,PingFang SC,Mircrosoft YaHei,Arial" x="195.8" y="39.3">一层的父 protocol 上</tspan></text></g><g transform="translate(952.354900,117.962500)" id="shape93"><path d="M.0,.0L414.9,.0L414.9,30.5L.0,30.5L.0,.0z" fill="#ffffff" fill-rule="nonzero"/><path stroke="#454545" d="M.0,30.5L414.9,30.5" fill="none" stroke-width="1"/><text style="fill:#303030;font-family:Microsoft YaHei,PingFang SC,Mircrosoft YaHei,Arial;font-size:10.00pt" xml:space="preserve"><tspan style="font-family:Microsoft YaHei,PingFang SC,Mircrosoft YaHei,Arial" x="12.5" y="21.3">可查看文档知道某个控件对应的类的 controller key 的字段表示什么</tspan></text></g><g transform="translate(1064.025900,196.362500)" id="shape94"><path d="M.0,.0L165.4,.0L165.4,30.5L.0,30.5L.0,.0z" fill="#ffffff" fill-rule="nonzero"/><path stroke="#454545" d="M.0,30.5L165.4,30.5" fill="none" stroke-width="1"/><text style="fill:#303030;font-family:Microsoft YaHei,PingFang SC,Mircrosoft YaHei,Arial;font-size:10.00pt" xml:space="preserve"><tspan style="font-family:Microsoft YaHei,PingFang SC,Mircrosoft YaHei,Arial" x="11.5" y="21.3">绑定的对象 objectValue</tspan></text></g><g transform="translate(357.979800,583.262500)" id="shape95"><path d="M.0,.0L90.9,.0L90.9,30.5L.0,30.5L.0,.0z" fill="#ffffff" fill-rule="nonzero"/><path stroke="#454545" d="M.0,30.5L90.9,30.5" fill="none" stroke-width="1"/><text style="fill:#303030;font-family:Microsoft YaHei,PingFang SC,Mircrosoft YaHei,Arial;font-size:10.00pt" xml:space="preserve"><tspan style="font-family:Microsoft YaHei,PingFang SC,Mircrosoft YaHei,Arial" x="12.5" y="21.3">storyboard</tspan></text></g><g transform="translate(357.979800,944.262500)" id="shape96"><path d="M.0,.0L71.8,.0L71.8,30.5L.0,30.5L.0,.0z" fill="#ffffff" fill-rule="nonzero"/><path stroke="#454545" d="M.0,30.5L71.8,30.5" fill="none" stroke-width="1"/><text style="fill:#303030;font-family:Microsoft YaHei,PingFang SC,Mircrosoft YaHei,Arial;font-size:10.00pt" xml:space="preserve"><tspan style="font-family:Microsoft YaHei,PingFang SC,Mircrosoft YaHei,Arial" x="12.5" y="21.3">selector</tspan></text></g><g transform="translate(454.745425,865.862500)" id="shape97"><path d="M.0,.0L280.6,.0L280.6,30.5L.0,30.5L.0,.0z" fill="#ffffff" fill-rule="nonzero"/><path stroke="#454545" d="M.0,30.5L280.6,30.5" fill="none" stroke-width="1"/><text style="fill:#303030;font-family:Microsoft YaHei,PingFang SC,Mircrosoft YaHei,Arial;font-size:10.00pt" xml:space="preserve"><tspan style="font-family:Microsoft YaHei,PingFang SC,Mircrosoft YaHei,Arial" x="12.5" y="21.3">本质上是 storyboard 的消息机制的代码实现</tspan></text></g><g transform="translate(454.745425,905.062500)" id="shape98"><path d="M.0,.0L125.2,.0L125.2,30.5L.0,30.5L.0,.0z" fill="#ffffff" fill-rule="nonzero"/><path stroke="#454545" d="M.0,30.5L125.2,30.5" fill="none" stroke-width="1"/><text style="fill:#303030;font-family:Microsoft YaHei,PingFang SC,Mircrosoft YaHei,Arial;font-size:10.00pt" xml:space="preserve"><tspan style="font-family:Microsoft YaHei,PingFang SC,Mircrosoft YaHei,Arial" x="11.5" y="21.3">UI 控件是 sender</tspan></text></g><g transform="translate(454.745425,944.262500)" id="shape99"><path d="M.0,.0L140.7,.0L140.7,30.5L.0,30.5L.0,.0z" fill="#ffffff" fill-rule="nonzero"/><path stroke="#454545" d="M.0,30.5L140.7,30.5" fill="none" stroke-width="1"/><text style="fill:#303030;font-family:Microsoft YaHei,PingFang SC,Mircrosoft YaHei,Arial;font-size:10.00pt" xml:space="preserve"><tspan style="font-family:Microsoft YaHei,PingFang SC,Mircrosoft YaHei,Arial" x="12.5" y="21.3">客户代码是 receiver</tspan></text></g><g transform="translate(454.745425,983.462500)" id="shape100"><path d="M.0,.0L449.0,.0L449.0,30.5L.0,30.5L.0,.0z" fill="#ffffff" fill-rule="nonzero"/><path stroke="#454545" d="M.0,30.5L449.0,30.5" fill="none" stroke-width="1"/><text style="fill:#303030;font-family:Microsoft YaHei,PingFang SC,Mircrosoft YaHei,Arial;font-size:10.00pt" xml:space="preserve"><tspan style="font-family:Microsoft YaHei,PingFang SC,Mircrosoft YaHei,Arial" x="12.5" y="21.3">注册对应的事件 selector sender.selector = #selector(receiver.callback)</tspan></text></g><g transform="translate(928.729800,983.462500)" id="shape101"><path d="M.0,.0L192.0,.0L192.0,30.5L.0,30.5L.0,.0z" fill="#ffffff" fill-rule="nonzero"/><path stroke="#454545" d="M.0,30.5L192.0,30.5" fill="none" stroke-width="1"/><text style="fill:#303030;font-family:Microsoft YaHei,PingFang SC,Mircrosoft YaHei,Arial;font-size:10.00pt" xml:space="preserve"><tspan style="font-family:Microsoft YaHei,PingFang SC,Mircrosoft YaHei,Arial" x="12.5" y="21.3">在事件被触发的时候回调回来</tspan></text></g><g transform="translate(454.745425,1022.662500)" id="shape102"><path d="M.0,.0L332.3,.0L332.3,30.5L.0,30.5L.0,.0z" fill="#ffffff" fill-rule="nonzero"/><path stroke="#454545" d="M.0,30.5L332.3,30.5" fill="none" stroke-width="1"/><text style="fill:#303030;font-family:Microsoft YaHei,PingFang SC,Mircrosoft YaHei,Arial;font-size:10.00pt" xml:space="preserve"><tspan style="font-family:Microsoft YaHei,PingFang SC,Mircrosoft YaHei,Arial" x="12.5" y="21.3">即使不是 UI 也可以使用 selector 机制回调，如 timer</tspan></text></g><g transform="translate(557.464175,700.062500)" id="shape103"><path d="M.0,.0L77.2,.0L77.2,30.5L.0,30.5L.0,.0z" fill="#ffffff" fill-rule="nonzero"/><path stroke="#454545" d="M.0,30.5L77.2,30.5" fill="none" stroke-width="1"/><text style="fill:#303030;font-family:Microsoft YaHei,PingFang SC,Mircrosoft YaHei,Arial;font-size:10.00pt" xml:space="preserve"><tspan style="font-family:Microsoft YaHei,PingFang SC,Mircrosoft YaHei,Arial" x="12.5" y="21.3">delegate</tspan></text></g><g transform="translate(557.464175,807.062500)" id="shape104"><path d="M.0,.0L93.1,.0L93.1,30.5L.0,30.5L.0,.0z" fill="#ffffff" fill-rule="nonzero"/><path stroke="#454545" d="M.0,30.5L93.1,30.5" fill="none" stroke-width="1"/><text style="fill:#303030;font-family:Microsoft YaHei,PingFang SC,Mircrosoft YaHei,Arial;font-size:10.00pt" xml:space="preserve"><tspan style="font-family:Microsoft YaHei,PingFang SC,Mircrosoft YaHei,Arial" x="11.5" y="21.3">dataSource</tspan></text></g><g transform="translate(659.667300,651.862500)" id="shape105"><path d="M.0,.0L101.0,.0L101.0,30.5L.0,30.5L.0,.0z" fill="#ffffff" fill-rule="nonzero"/><path stroke="#454545" d="M.0,30.5L101.0,30.5" fill="none" stroke-width="1"/><text style="fill:#303030;font-family:Microsoft YaHei,PingFang SC,Mircrosoft YaHei,Arial;font-size:10.00pt" xml:space="preserve"><tspan style="font-family:Microsoft YaHei,PingFang SC,Mircrosoft YaHei,Arial" x="12.5" y="21.3">回调用户动作</tspan></text></g><g transform="translate(675.542300,787.462500)" id="shape106"><path d="M.0,.0L179.0,.0L179.0,30.5L.0,30.5L.0,.0z" fill="#ffffff" fill-rule="nonzero"/><path stroke="#454545" d="M.0,30.5L179.0,30.5" fill="none" stroke-width="1"/><text style="fill:#303030;font-family:Microsoft YaHei,PingFang SC,Mircrosoft YaHei,Arial;font-size:10.00pt" xml:space="preserve"><tspan style="font-family:Microsoft YaHei,PingFang SC,Mircrosoft YaHei,Arial" x="12.5" y="21.3">回调数据变化，如需要排序</tspan></text></g><g transform="translate(675.542300,826.662500)" id="shape107"><path d="M.0,.0L370.4,.0L370.4,30.5L.0,30.5L.0,.0z" fill="#ffffff" fill-rule="nonzero"/><path stroke="#454545" d="M.0,30.5L370.4,30.5" fill="none" stroke-width="1"/><text style="fill:#303030;font-family:Microsoft YaHei,PingFang SC,Mircrosoft YaHei,Arial;font-size:10.00pt" xml:space="preserve"><tspan style="font-family:Microsoft YaHei,PingFang SC,Mircrosoft YaHei,Arial" x="12.5" y="21.3">控件 NSXXXX，对应的 dataSource 是NSXXXXDataSource</tspan></text></g></g></svg>