<svg xmlns:ev="http://www.w3.org/2001/xml-events" viewBox="0 0 1343 677" height="677" xmlns:xlink="http://www.w3.org/1999/xlink" width="1343" xmlns="http://www.w3.org/2000/svg"><defs/><g transform="translate(5.5,5.5)" id="page1"><rect x="0" y="0" height="667" width="1333" fill="#ffffff"/><g transform="translate(39.539800,367.350000)" id="shape1"><path d="M34.5,.0L76.9,.0C96.0,.0,111.4,15.4,111.4,34.5C111.4,53.6,96.0,69.0,76.9,69.0L34.5,69.0C15.4,69.0,.0,53.6,.0,34.5C.0,15.4,15.4,.0,34.5,.0z" fill-rule="nonzero" stroke="#5a97fb" stroke-width="3" fill="#5a97fb"/><text xml:space="preserve" style="fill:#ffffff;font-family:Microsoft YaHei;font-size:18.00pt;font-weight:bold"><tspan x="33.5" y="44.5">绑定</tspan></text></g><path stroke-linecap="round" transform="translate(154.62,303.34)" d="M-3.6,98.5L20.0,98.5C21.6,98.5,23.0,97.2,23.0,95.5L23.0,-89.5C23.0,-91.2,22.7,-93.6,23.7,-95.4C24.7,-97.2,26.7,-98.5,29.0,-98.5L59.4,-98.5" stroke="#454545" stroke-width="3" id="shape2" fill="none"/><path stroke-linecap="round" transform="translate(154.62,407.36)" d="M-3.6,-5.5L21.0,-5.5C22.1,-5.5,23.0,-4.6,23.0,-3.5L23.0,-2.5C23.0,-1.4,22.8,.2,23.3,1.5C24.1,3.8,26.3,5.5,29.0,5.5L59.4,5.5" stroke="#454545" stroke-width="3" id="shape3" fill="none"/><path stroke-linecap="round" transform="translate(345.48,174.20)" d="M-12.5,30.6L-0.3,30.6C1.4,30.6,2.7,29.3,2.7,27.6L2.7,-21.6C2.7,-23.3,2.5,-25.7,3.4,-27.5C4.5,-29.4,6.4,-30.6,8.7,-30.6L12.5,-30.6" stroke="#454545" stroke-width="1" id="shape4" fill="none"/><path stroke-linecap="round" transform="translate(345.48,235.45)" d="M-12.5,-30.6L-0.3,-30.6C1.4,-30.6,2.7,-29.3,2.7,-27.6L2.7,21.6C2.7,23.3,2.5,25.7,3.4,27.5C4.5,29.4,6.4,30.6,8.7,30.6L12.5,30.6" stroke="#454545" stroke-width="1" id="shape5" fill="none"/><path stroke-linecap="round" transform="translate(445.48,143.58)" d="M-12.5,.0L-0.3,.0C1.4,.0,3.7,.0,5.7,.0C6.6,.0,7.6,.0,8.7,.0L12.5,.0" stroke="#454545" stroke-width="1" id="shape6" fill="none"/><path stroke-linecap="round" transform="translate(471.48,266.08)" d="M-12.5,.0L-0.3,.0C1.4,.0,3.7,.0,5.7,.0C6.6,.0,7.6,.0,8.7,.0L12.5,.0" stroke="#454545" stroke-width="1" id="shape7" fill="none"/><path stroke-linecap="round" transform="translate(602.84,143.58)" d="M-12.5,.0L-0.3,.0C1.4,.0,3.7,.0,5.7,.0C6.6,.0,7.6,.0,8.7,.0L12.5,.0" stroke="#454545" stroke-width="1" id="shape8" fill="none"/><path stroke-linecap="round" transform="translate(725.67,116.63)" d="M-12.5,27.0L-0.3,27.0C1.4,27.0,2.7,25.6,2.7,24.0L2.7,-18.0C2.7,-19.6,2.5,-22.1,3.4,-23.8C4.5,-25.7,6.4,-27.0,8.7,-27.0L12.5,-27.0" stroke="#454545" stroke-width="1" id="shape9" fill="none"/><path stroke-linecap="round" transform="translate(725.67,170.53)" d="M-12.5,-27.0L-0.3,-27.0C1.4,-27.0,2.7,-25.6,2.7,-24.0L2.7,17.9C2.7,19.6,2.5,22.1,3.4,23.8C4.5,25.7,6.4,26.9,8.7,26.9L12.5,26.9" stroke="#454545" stroke-width="1" id="shape10" fill="none"/><path stroke-linecap="round" transform="translate(870.53,182.78)" d="M-12.5,14.7L-0.3,14.7C1.4,14.7,2.7,13.4,2.7,11.7L2.7,-5.7C2.7,-7.4,2.5,-9.8,3.4,-11.6C4.5,-13.4,6.4,-14.7,8.7,-14.7L12.5,-14.7" stroke="#454545" stroke-width="1" id="shape11" fill="none"/><path stroke-linecap="round" transform="translate(970.53,158.28)" d="M-12.5,9.8L-0.3,9.8C1.4,9.8,2.7,8.5,2.7,6.8L2.7,-0.8C2.7,-2.5,2.5,-4.9,3.4,-6.7C4.5,-8.5,6.4,-9.8,8.7,-9.8L12.5,-9.8" stroke="#454545" stroke-width="1" id="shape12" fill="none"/><path stroke-linecap="round" transform="translate(970.53,177.88)" d="M-12.5,-9.8L-0.3,-9.8C1.4,-9.8,2.7,-8.5,2.7,-6.8L2.7,.8C2.7,2.5,2.5,4.9,3.4,6.7C4.5,8.5,6.4,9.8,8.7,9.8L12.5,9.8" stroke="#454545" stroke-width="1" id="shape13" fill="none"/><path stroke-linecap="round" transform="translate(858.85,79.88)" d="M-12.5,9.8L-0.3,9.8C1.4,9.8,2.7,8.5,2.7,6.8L2.7,-0.8C2.7,-2.5,2.5,-4.9,3.4,-6.7C4.5,-8.5,6.4,-9.8,8.7,-9.8L12.5,-9.8" stroke="#454545" stroke-width="1" id="shape14" fill="none"/><path stroke-linecap="round" transform="translate(958.01,70.08)" d="M-12.5,.0L-0.3,.0C1.4,.0,3.7,.0,5.7,.0C6.6,.0,7.6,.0,8.7,.0L12.5,.0" stroke="#454545" stroke-width="1" id="shape15" fill="none"/><path stroke-linecap="round" transform="translate(345.48,385.93)" d="M-12.5,26.9L-0.3,26.9C1.4,26.9,2.7,25.6,2.7,23.9L2.7,-17.9C2.7,-19.6,2.5,-22.1,3.4,-23.8C4.5,-25.7,6.4,-26.9,8.7,-26.9L12.5,-26.9" stroke="#454545" stroke-width="1" id="shape16" fill="none"/><path stroke-linecap="round" transform="translate(445.48,358.98)" d="M-12.5,.0C-2.5,.0,5.0,.0,12.5,.0" stroke="#454545" stroke-width="1" id="shape17" fill="none"/><path stroke-linecap="round" transform="translate(624.20,344.28)" d="M-12.5,14.7C.8,14.7,-2.8,-14.7,12.5,-14.7" stroke="#454545" stroke-width="1" id="shape18" fill="none"/><path stroke-linecap="round" transform="translate(624.20,373.68)" d="M-12.5,-14.7C.8,-14.7,-2.8,14.7,12.5,14.7" stroke="#454545" stroke-width="1" id="shape19" fill="none"/><path stroke-linecap="round" transform="translate(850.85,378.58)" d="M-12.5,9.8C-0.2,9.8,-0.3,-9.8,12.5,-9.8" stroke="#454545" stroke-width="1" id="shape20" fill="none"/><path stroke-linecap="round" transform="translate(850.85,398.18)" d="M-12.5,-9.8C-0.2,-9.8,-0.3,9.8,12.5,9.8" stroke="#454545" stroke-width="1" id="shape21" fill="none"/><path stroke-linecap="round" transform="translate(345.48,439.83)" d="M-12.5,-26.9L-0.3,-26.9C1.4,-26.9,2.7,-25.6,2.7,-23.9L2.7,18.0C2.7,19.6,2.5,22.1,3.4,23.8C4.5,25.7,6.4,27.0,8.7,27.0L12.5,27.0" stroke="#454545" stroke-width="1" id="shape22" fill="none"/><path stroke-linecap="round" transform="translate(445.48,466.78)" d="M-12.5,.0C-2.5,.0,5.0,.0,12.5,.0" stroke="#454545" stroke-width="1" id="shape23" fill="none"/><path stroke-linecap="round" transform="translate(519.48,456.98)" d="M-12.5,9.8C-0.2,9.8,-0.3,-9.8,12.5,-9.8" stroke="#454545" stroke-width="1" id="shape24" fill="none"/><path stroke-linecap="round" transform="translate(519.48,476.58)" d="M-12.5,-9.8C-0.2,-9.8,-0.3,9.8,12.5,9.8" stroke="#454545" stroke-width="1" id="shape25" fill="none"/><path stroke-linecap="round" transform="translate(154.62,500.36)" d="M-3.6,-98.5L20.0,-98.5C21.6,-98.5,23.0,-97.2,23.0,-95.5L23.0,89.5C23.0,91.2,22.7,93.6,23.7,95.4C24.7,97.2,26.7,98.5,29.0,98.5L59.4,98.5" stroke="#454545" stroke-width="3" id="shape26" fill="none"/><path stroke-linecap="round" transform="translate(345.48,584.17)" d="M-12.5,14.7C.8,14.7,-2.8,-14.7,12.5,-14.7" stroke="#454545" stroke-width="1" id="shape27" fill="none"/><path stroke-linecap="round" transform="translate(536.48,569.48)" d="M-12.5,.0C-2.5,.0,5.0,.0,12.5,.0" stroke="#454545" stroke-width="1" id="shape28" fill="none"/><path stroke-linecap="round" transform="translate(345.48,613.58)" d="M-12.5,-14.7C.8,-14.7,-2.8,14.7,12.5,14.7" stroke="#454545" stroke-width="1" id="shape29" fill="none"/><path stroke-linecap="round" transform="translate(858.85,99.48)" d="M-12.5,-9.8L-0.3,-9.8C1.4,-9.8,2.7,-8.5,2.7,-6.8L2.7,.8C2.7,2.5,2.5,4.9,3.4,6.7C4.5,8.5,6.4,9.8,8.7,9.8L12.5,9.8" stroke="#454545" stroke-width="1" id="shape30" fill="none"/><path stroke-linecap="round" transform="translate(870.53,212.18)" d="M-12.5,-14.7L-0.3,-14.7C1.4,-14.7,2.7,-13.4,2.7,-11.7L2.7,5.7C2.7,7.4,2.5,9.8,3.4,11.6C4.5,13.4,6.4,14.7,8.7,14.7L12.5,14.7" stroke="#454545" stroke-width="1" id="shape31" fill="none"/><path stroke-linecap="round" transform="translate(725.32,559.67)" d="M-12.5,9.8C-0.2,9.8,-0.3,-9.8,12.5,-9.8" stroke="#454545" stroke-width="1" id="shape32" fill="none"/><path stroke-linecap="round" transform="translate(725.32,579.28)" d="M-12.5,-9.8C-0.2,-9.8,-0.3,9.8,12.5,9.8" stroke="#454545" stroke-width="1" id="shape33" fill="none"/><g transform="translate(213.979800,180.825000)" id="shape34"><path d="M4.0,.0L115.0,.0C117.2,.0,119.0,1.8,119.0,4.0L119.0,44.0C119.0,46.2,117.2,48.0,115.0,48.0L4.0,48.0C1.8,48.0,.0,46.2,.0,44.0L.0,4.0C.0,1.8,1.8,.0,4.0,.0z" fill-rule="nonzero" stroke="#454545" stroke-width="2" fill="#ffffff"/><text xml:space="preserve" style="fill:#303030;font-family:Microsoft YaHei;font-size:14.00pt;font-weight:bold"><tspan x="23.3" y="33.0">静态绑定</tspan></text></g><g transform="translate(213.979800,388.875000)" id="shape35"><path d="M4.0,.0L115.0,.0C117.2,.0,119.0,1.8,119.0,4.0L119.0,44.0C119.0,46.2,117.2,48.0,115.0,48.0L4.0,48.0C1.8,48.0,.0,46.2,.0,44.0L.0,4.0C.0,1.8,1.8,.0,4.0,.0z" fill-rule="nonzero" stroke="#454545" stroke-width="2" fill="#ffffff"/><text xml:space="preserve" style="fill:#303030;font-family:Microsoft YaHei;font-size:14.00pt;font-weight:bold"><tspan x="23.3" y="33.0">动态绑定</tspan></text></g><g transform="translate(357.979800,113.075000)" id="shape36"><path d="M.0,.0L75.0,.0L75.0,30.5L.0,30.5L.0,.0z" fill-rule="nonzero" fill="#ffffff"/><path d="M.0,30.5L75.0,30.5" stroke="#454545" stroke-width="1" fill="none"/><text xml:space="preserve" style="fill:#303030;font-family:Microsoft YaHei;font-size:10.00pt"><tspan x="12.5" y="21.3">绑定操作</tspan></text></g><g transform="translate(357.979800,235.575000)" id="shape37"><path d="M.0,.0L101.0,.0L101.0,30.5L.0,30.5L.0,.0z" fill-rule="nonzero" fill="#ffffff"/><path d="M.0,30.5L101.0,30.5" stroke="#454545" stroke-width="1" fill="none"/><text xml:space="preserve" style="fill:#303030;font-family:Microsoft YaHei;font-size:10.00pt"><tspan x="12.5" y="21.3">查看绑定关系</tspan></text></g><g transform="translate(457.979800,113.075000)" id="shape38"><path d="M.0,.0L132.4,.0L132.4,30.5L.0,30.5L.0,.0z" fill-rule="nonzero" fill="#ffffff"/><path d="M.0,30.5L132.4,30.5" stroke="#454545" stroke-width="1" fill="none"/><text xml:space="preserve" style="fill:#303030;font-family:Microsoft YaHei;font-size:10.00pt"><tspan x="12.5" y="21.3">binding inspector</tspan></text></g><g transform="translate(483.979800,235.575000)" id="shape39"><path d="M.0,.0L153.7,.0L153.7,30.5L.0,30.5L.0,.0z" fill-rule="nonzero" fill="#ffffff"/><path d="M.0,30.5L153.7,30.5" stroke="#454545" stroke-width="1" fill="none"/><text xml:space="preserve" style="fill:#303030;font-family:Microsoft YaHei;font-size:10.00pt"><tspan x="12.5" y="21.3">connection inspector</tspan></text></g><g transform="translate(615.338800,113.075000)" id="shape40"><path d="M.0,.0L97.8,.0L97.8,30.5L.0,30.5L.0,.0z" fill-rule="nonzero" fill="#ffffff"/><path d="M.0,30.5L97.8,30.5" stroke="#454545" stroke-width="1" fill="none"/><text xml:space="preserve" style="fill:#303030;font-family:Microsoft YaHei;font-size:10.00pt"><tspan x="12.5" y="21.3">bind to 设置</tspan></text></g><g transform="translate(738.166900,59.175000)" id="shape41"><path d="M.0,.0L108.2,.0L108.2,30.5L.0,30.5L.0,.0z" fill-rule="nonzero" fill="#ffffff"/><path d="M.0,30.5L108.2,30.5" stroke="#454545" stroke-width="1" fill="none"/><text xml:space="preserve" style="fill:#303030;font-family:Microsoft YaHei;font-size:10.00pt"><tspan x="12.5" y="21.3">controller key</tspan></text></g><g transform="translate(738.166900,166.975000)" id="shape42"><path d="M.0,.0L119.9,.0L119.9,30.5L.0,30.5L.0,.0z" fill-rule="nonzero" fill="#ffffff"/><path d="M.0,30.5L119.9,30.5" stroke="#454545" stroke-width="1" fill="none"/><text xml:space="preserve" style="fill:#303030;font-family:Microsoft YaHei;font-size:10.00pt"><tspan x="12.5" y="21.3">model key path</tspan></text></g><g transform="translate(883.025900,137.575000)" id="shape43"><path d="M.0,.0L75.0,.0L75.0,30.5L.0,30.5L.0,.0z" fill-rule="nonzero" fill="#ffffff"/><path d="M.0,30.5L75.0,30.5" stroke="#454545" stroke-width="1" fill="none"/><text xml:space="preserve" style="fill:#303030;font-family:Microsoft YaHei;font-size:10.00pt"><tspan x="12.5" y="21.3">绑定对象</tspan></text></g><g transform="translate(983.025900,117.975000)" id="shape44"><path d="M.0,.0L73.8,.0L73.8,30.5L.0,30.5L.0,.0z" fill-rule="nonzero" fill="#ffffff"/><path d="M.0,30.5L73.8,30.5" stroke="#454545" stroke-width="1" fill="none"/><text xml:space="preserve" style="fill:#303030;font-family:Microsoft YaHei;font-size:10.00pt"><tspan x="12.5" y="21.3">self.xxxx</tspan></text></g><g transform="translate(983.025900,157.175000)" id="shape45"><path d="M.0,.0L126.0,.0L126.0,30.5L.0,30.5L.0,.0z" fill-rule="nonzero" fill="#ffffff"/><path d="M.0,30.5L126.0,30.5" stroke="#454545" stroke-width="1" fill="none"/><text xml:space="preserve" style="fill:#303030;font-family:Microsoft YaHei;font-size:10.00pt"><tspan x="12.5" y="21.3">objectValue.xxxx</tspan></text></g><g transform="translate(871.354900,39.575000)" id="shape46"><path d="M.0,.0L74.2,.0L74.2,30.5L.0,30.5L.0,.0z" fill-rule="nonzero" fill="#ffffff"/><path d="M.0,30.5L74.2,30.5" stroke="#454545" stroke-width="1" fill="none"/><text xml:space="preserve" style="fill:#303030;font-family:Microsoft YaHei;font-size:10.00pt"><tspan x="12.5" y="21.3">预设 key</tspan></text></g><g transform="translate(970.511200,39.575000)" id="shape47"><path d="M.0,.0L156.2,.0L156.2,30.5L.0,30.5L.0,.0z" fill-rule="nonzero" fill="#ffffff"/><path d="M.0,30.5L156.2,30.5" stroke="#454545" stroke-width="1" fill="none"/><text xml:space="preserve" style="fill:#303030;font-family:Microsoft YaHei;font-size:10.00pt"><tspan x="12.5" y="21.3">数组 arrangedObjects</tspan></text></g><g transform="translate(357.979800,328.475000)" id="shape48"><path d="M.0,.0L75.0,.0L75.0,30.5L.0,30.5L.0,.0z" fill-rule="nonzero" fill="#ffffff"/><path d="M.0,30.5L75.0,30.5" stroke="#454545" stroke-width="1" fill="none"/><text xml:space="preserve" style="fill:#303030;font-family:Microsoft YaHei;font-size:10.00pt"><tspan x="12.5" y="21.3">绑定操作</tspan></text></g><g transform="translate(457.979800,328.475000)" id="shape49"><path d="M.0,.0L153.7,.0L153.7,30.5L.0,30.5L.0,.0z" fill-rule="nonzero" fill="#ffffff"/><path d="M.0,30.5L153.7,30.5" stroke="#454545" stroke-width="1" fill="none"/><text xml:space="preserve" style="fill:#303030;font-family:Microsoft YaHei;font-size:10.00pt"><tspan x="12.5" y="21.3">connection inspector</tspan></text></g><g transform="translate(636.698800,299.075000)" id="shape50"><path d="M.0,.0L456.5,.0L456.5,30.5L.0,30.5L.0,.0z" fill-rule="nonzero" fill="#ffffff"/><path d="M.0,30.5L456.5,30.5" stroke="#454545" stroke-width="1" fill="none"/><text xml:space="preserve" style="fill:#303030;font-family:Microsoft YaHei;font-size:10.00pt"><tspan x="12.5" y="21.3">control 拖动到 view controller 类，绑定到某个字段，从而获得控件的对象</tspan></text></g><g transform="translate(636.698800,357.875000)" id="shape51"><path d="M.0,.0L201.7,.0L201.7,30.5L.0,30.5L.0,.0z" fill-rule="nonzero" fill="#ffffff"/><path d="M.0,30.5L201.7,30.5" stroke="#454545" stroke-width="1" fill="none"/><text xml:space="preserve" style="fill:#303030;font-family:Microsoft YaHei;font-size:10.00pt"><tspan x="12.5" y="21.3">设置 dataSource 和 delegate </tspan></text></g><g transform="translate(863.354800,338.275000)" id="shape52"><path d="M.0,.0L280.5,.0L280.5,30.5L.0,30.5L.0,.0z" fill-rule="nonzero" fill="#ffffff"/><path d="M.0,30.5L280.5,30.5" stroke="#454545" stroke-width="1" fill="none"/><text xml:space="preserve" style="fill:#303030;font-family:Microsoft YaHei;font-size:10.00pt"><tspan x="12.5" y="21.3">代码继承 dataSource 和 delegate protocol</tspan></text></g><g transform="translate(863.354800,377.475000)" id="shape53"><path d="M.0,.0L430.3,.0L430.3,30.5L.0,30.5L.0,.0z" fill-rule="nonzero" fill="#ffffff"/><path d="M.0,30.5L430.3,30.5" stroke="#454545" stroke-width="1" fill="none"/><text xml:space="preserve" style="fill:#303030;font-family:Microsoft YaHei;font-size:10.00pt"><tspan x="12.5" y="21.3">connection inspector 中选择对应的 + 号拖到 view controller 控件上</tspan></text></g><g transform="translate(357.979800,436.275000)" id="shape54"><path d="M.0,.0L75.0,.0L75.0,30.5L.0,30.5L.0,.0z" fill-rule="nonzero" fill="#ffffff"/><path d="M.0,30.5L75.0,30.5" stroke="#454545" stroke-width="1" fill="none"/><text xml:space="preserve" style="fill:#303030;font-family:Microsoft YaHei;font-size:10.00pt"><tspan x="12.5" y="21.3">代码改动</tspan></text></g><g transform="translate(457.979800,436.275000)" id="shape55"><path d="M.0,.0L49.0,.0L49.0,30.5L.0,30.5L.0,.0z" fill-rule="nonzero" fill="#ffffff"/><path d="M.0,30.5L49.0,30.5" stroke="#454545" stroke-width="1" fill="none"/><text xml:space="preserve" style="fill:#303030;font-family:Microsoft YaHei;font-size:10.00pt"><tspan x="12.5" y="21.3">代码</tspan></text></g><g transform="translate(531.979800,416.675000)" id="shape56"><path d="M.0,.0L101.0,.0L101.0,30.5L.0,30.5L.0,.0z" fill-rule="nonzero" fill="#ffffff"/><path d="M.0,30.5L101.0,30.5" stroke="#454545" stroke-width="1" fill="none"/><text xml:space="preserve" style="fill:#303030;font-family:Microsoft YaHei;font-size:10.00pt"><tspan x="12.5" y="21.3">控件对象操作</tspan></text></g><g transform="translate(531.979800,455.875000)" id="shape57"><path d="M.0,.0L257.0,.0L257.0,30.5L.0,30.5L.0,.0z" fill-rule="nonzero" fill="#ffffff"/><path d="M.0,30.5L257.0,30.5" stroke="#454545" stroke-width="1" fill="none"/><text xml:space="preserve" style="fill:#303030;font-family:Microsoft YaHei;font-size:10.00pt"><tspan x="12.5" y="21.3">使用代码实现和静态绑定那样的绑定关系</tspan></text></g><g transform="translate(213.979800,574.875000)" id="shape58"><path d="M4.0,.0L115.0,.0C117.2,.0,119.0,1.8,119.0,4.0L119.0,44.0C119.0,46.2,117.2,48.0,115.0,48.0L4.0,48.0C1.8,48.0,.0,46.2,.0,44.0L.0,4.0C.0,1.8,1.8,.0,4.0,.0z" fill-rule="nonzero" stroke="#454545" stroke-width="2" fill="#ffffff"/><text xml:space="preserve" style="fill:#303030;font-family:Microsoft YaHei;font-size:14.00pt;font-weight:bold"><tspan x="23.3" y="33.0">消息机制</tspan></text></g><g transform="translate(357.979800,538.975000)" id="shape59"><path d="M.0,.0L166.0,.0L166.0,30.5L.0,30.5L.0,.0z" fill-rule="nonzero" fill="#ffffff"/><path d="M.0,30.5L166.0,30.5" stroke="#454545" stroke-width="1" fill="none"/><text xml:space="preserve" style="fill:#303030;font-family:Microsoft YaHei;font-size:10.00pt"><tspan x="12.5" y="21.3">本质上其实就是函数调用</tspan></text></g><g transform="translate(548.979800,538.975000)" id="shape60"><path d="M.0,.0L163.8,.0L163.8,30.5L.0,30.5L.0,.0z" fill-rule="nonzero" fill="#ffffff"/><path d="M.0,30.5L163.8,30.5" stroke="#454545" stroke-width="1" fill="none"/><text xml:space="preserve" style="fill:#303030;font-family:Microsoft YaHei;font-size:10.00pt"><tspan x="12.5" y="21.3">receiver.action(sender)</tspan></text></g><g transform="translate(357.979800,597.775000)" id="shape61"><path d="M.0,.0L459.3,.0L459.3,30.5L.0,30.5L.0,.0z" fill-rule="nonzero" fill="#ffffff"/><path d="M.0,30.5L459.3,30.5" stroke="#454545" stroke-width="1" fill="none"/><text xml:space="preserve" style="fill:#303030;font-family:Microsoft YaHei;font-size:10.00pt"><tspan x="12.5" y="21.3">在 connection inspector 上的 Action 栏可以查看到控件都支持什么 action</tspan></text></g><g transform="translate(871.354900,78.775000)" id="shape62"><path d="M.0,.0L258.5,.0L258.5,30.5L.0,30.5L.0,.0z" fill-rule="nonzero" fill="#ffffff"/><path d="M.0,30.5L258.5,30.5" stroke="#454545" stroke-width="1" fill="none"/><text xml:space="preserve" style="fill:#303030;font-family:Microsoft YaHei;font-size:10.00pt"><tspan x="12.5" y="21.3">cocoa 控件对应的类已经定义好的字段值</tspan></text></g><g transform="translate(883.025900,196.375000)" id="shape63"><path d="M.0,.0L140.0,.0L140.0,30.5L.0,30.5L.0,.0z" fill-rule="nonzero" fill="#ffffff"/><path d="M.0,30.5L140.0,30.5" stroke="#454545" stroke-width="1" fill="none"/><text xml:space="preserve" style="fill:#303030;font-family:Microsoft YaHei;font-size:10.00pt"><tspan x="12.5" y="21.3">用户自定义的字段值</tspan></text></g><g transform="translate(737.823550,519.375000)" id="shape64"><path d="M.0,.0L293.5,.0L293.5,30.5L.0,30.5L.0,.0z" fill-rule="nonzero" fill="#ffffff"/><path d="M.0,30.5L293.5,30.5" stroke="#454545" stroke-width="1" fill="none"/><text xml:space="preserve" style="fill:#303030;font-family:Microsoft YaHei;font-size:10.00pt"><tspan x="12.5" y="21.3">通过 storyboard 的 control 拖拉操作发送消息</tspan></text></g><g transform="translate(737.823550,558.575000)" id="shape65"><path d="M.0,.0L464.9,.0L464.9,30.5L.0,30.5L.0,.0z" fill-rule="nonzero" fill="#ffffff"/><path d="M.0,30.5L464.9,30.5" stroke="#454545" stroke-width="1" fill="none"/><text xml:space="preserve" style="fill:#303030;font-family:Microsoft YaHei;font-size:10.00pt"><tspan x="12.5" y="21.3">通过 control 拖拉操作在代码中获得控件对象，在代码中直接调用对应的函数</tspan></text></g></g></svg>