<svg xmlns="http://www.w3.org/2000/svg" xmlns:xlink="http://www.w3.org/1999/xlink" xmlns:ev="http://www.w3.org/2001/xml-events" viewBox="0 0 733 220" width="733" height="220"><defs/><g id="page1" transform="translate(5.5,5.5)"><rect fill="#ffffff" x="0" y="0" width="723" height="210"/><g id="shape1" transform="translate(296.759843,38.900000)"><path fill="#ffffff" stroke="#101843" fill-rule="nonzero" stroke-width="1" d="M.0,64.5C.0,28.9,28.9,.0,64.5,.0C100.1,.0,129.0,28.9,129.0,64.5C129.0,100.1,100.1,129.0,64.5,129.0C28.9,129.0,.0,100.1,.0,64.5z"/><text xml:space="preserve" style="fill:#191919;font-family:Microsoft YaHei,PingFang SC,Mircrosoft YaHei,Arial;font-size:10.00pt"><tspan x="7.3" y="70.5" style="font-family:Microsoft YaHei,PingFang SC,Mircrosoft YaHei,Arial">NotificationCenter</tspan></text></g><g id="shape2" transform="translate(425.759843,103.400000)"><path fill="none" stroke="#191919" stroke-width="1" d="M.0,.0L56.2,.0"/><path fill="#191919" stroke="#191919" stroke-width="1" stroke-linecap="round" d="M56.2,-3.0L62.2,.0L56.2,3.0L56.2,-3.0"/></g><g id="shape3" transform="translate(488.000000,85.800000)"><path fill="#ffffff" stroke="#101843" fill-rule="nonzero" stroke-width="1" d="M196.0,28.2L196.0,7.0C196.0,3.1,192.9,.0,189.0,.0L7.0,.0C3.1,.0,.0,3.1,.0,7.0L.0,28.2C.0,32.1,3.1,35.2,7.0,35.2L189.0,35.2C192.9,35.2,196.0,32.1,196.0,28.2z"/><text xml:space="preserve" style="fill:#191919;font-family:Microsoft YaHei,PingFang SC,Mircrosoft YaHei,Arial;font-size:10.00pt"><tspan x="45.4" y="23.6" style="font-family:Microsoft YaHei,PingFang SC,Mircrosoft YaHei,Arial">StudentObserver</tspan></text></g><g id="shape4" transform="translate(488.000000,121.000000)"><path fill="#ffffff" stroke="#101843" fill-rule="nonzero" stroke-width="1" d="M196.0,42.8L196.0,7.0C196.0,3.1,192.9,.0,189.0,.0L7.0,.0C3.1,.0,.0,3.1,.0,7.0L.0,42.8C.0,46.7,3.1,49.8,7.0,49.8L189.0,49.8C192.9,49.8,196.0,46.7,196.0,42.8z"/><text xml:space="preserve" style="fill:#191919;font-family:Microsoft YaHei,PingFang SC,Mircrosoft YaHei,Arial;font-size:10.00pt"><tspan x="4.8" y="21.9" style="font-family:Microsoft YaHei,PingFang SC,Mircrosoft YaHei,Arial"> 调用Notification.addObserver</tspan><tspan x="85.0" y="39.9" style="font-family:Microsoft YaHei,PingFang SC,Mircrosoft YaHei,Arial">注册</tspan></text></g><g id="shape5" transform="translate(38.519685,85.800000)"><path fill="#ffffff" stroke="#101843" fill-rule="nonzero" stroke-width="1" d="M196.0,28.2L196.0,7.0C196.0,3.1,192.9,.0,189.0,.0L7.0,.0C3.1,.0,.0,3.1,.0,7.0L.0,28.2C.0,32.1,3.1,35.2,7.0,35.2L189.0,35.2C192.9,35.2,196.0,32.1,196.0,28.2z"/><text xml:space="preserve" style="fill:#191919;font-family:Microsoft YaHei,PingFang SC,Mircrosoft YaHei,Arial;font-size:10.00pt"><tspan x="73.6" y="24.0" style="font-family:Microsoft YaHei,PingFang SC,Mircrosoft YaHei,Arial">Student</tspan></text></g><g id="shape6" transform="translate(38.519685,121.000000)"><path fill="#ffffff" stroke="#101843" fill-rule="nonzero" stroke-width="1" d="M196.0,42.8L196.0,7.0C196.0,3.1,192.9,.0,189.0,.0L7.0,.0C3.1,.0,.0,3.1,.0,7.0L.0,42.8C.0,46.7,3.1,49.8,7.0,49.8L189.0,49.8C192.9,49.8,196.0,46.7,196.0,42.8z"/><text xml:space="preserve" style="fill:#191919;font-family:Microsoft YaHei,PingFang SC,Mircrosoft YaHei,Arial;font-size:10.00pt"><tspan x="18.2" y="22.0" style="font-family:Microsoft YaHei,PingFang SC,Mircrosoft YaHei,Arial"> 调用Notification.post通知</tspan><tspan x="78.5" y="40.0" style="font-family:Microsoft YaHei,PingFang SC,Mircrosoft YaHei,Arial">观察者</tspan></text></g><g id="shape7" transform="translate(296.759843,103.400000)"><path fill="none" stroke="#191919" stroke-width="1" d="M.0,.0L-56.2,-0.0"/><path fill="#191919" stroke="#191919" stroke-width="1" stroke-linecap="round" d="M-56.2,3.0L-62.2,-0.0L-56.2,-3.0L-56.2,3.0"/></g></g></svg>